<?xml version="1.0" encoding="UTF-8" standalone="no"?>
<!-- Created with Inkscape (http://www.inkscape.org/) -->

<svg
   xmlns:dc="http://purl.org/dc/elements/1.1/"
   xmlns:cc="http://creativecommons.org/ns#"
   xmlns:rdf="http://www.w3.org/1999/02/22-rdf-syntax-ns#"
   xmlns:svg="http://www.w3.org/2000/svg"
   xmlns="http://www.w3.org/2000/svg"
   xmlns:sodipodi="http://sodipodi.sourceforge.net/DTD/sodipodi-0.dtd"
   xmlns:inkscape="http://www.inkscape.org/namespaces/inkscape"
   width="194.76521mm"
   height="172.19301mm"
   viewBox="0 0 194.76521 172.19301"
   version="1.1"
   id="svg8"
   inkscape:version="0.92.2 (5c3e80d, 2017-08-06)"
   sodipodi:docname="vikinghelmOG.svg">
  <defs
     id="defs2" />
  <sodipodi:namedview
     id="base"
     pagecolor="#ffffff"
     bordercolor="#666666"
     borderopacity="1.0"
     inkscape:pageopacity="0.0"
     inkscape:pageshadow="2"
     inkscape:zoom="0.37772166"
     inkscape:cx="1767.8185"
     inkscape:cy="-60.183689"
     inkscape:document-units="mm"
     inkscape:current-layer="layer1"
     showgrid="false"
     inkscape:measure-start="-1094.29,868.571"
     inkscape:measure-end="-808.718,1357.22"
     showguides="false"
     fit-margin-top="0"
     fit-margin-left="0"
     fit-margin-right="0"
     fit-margin-bottom="0"
     inkscape:window-width="1920"
     inkscape:window-height="1017"
     inkscape:window-x="-8"
     inkscape:window-y="-8"
     inkscape:window-maximized="1" />
  <metadata
     id="metadata5">
    <rdf:RDF>
      <cc:Work
         rdf:about="">
        <dc:format>image/svg+xml</dc:format>
        <dc:type
           rdf:resource="http://purl.org/dc/dcmitype/StillImage" />
        <dc:title></dc:title>
      </cc:Work>
    </rdf:RDF>
  </metadata>
  <g
     inkscape:label="Layer 1"
     inkscape:groupmode="layer"
     id="layer1"
     transform="translate(-6.7097738,-55.084576)">
    <path
       style="fill:#f82424;fill-opacity:0;stroke-width:0.21801719;stroke-miterlimit:4;stroke-dasharray:none"
       d="m 34.317105,223.15612 c -7.378612,2.24714 -13.540461,4.02088 -13.69299,3.94162 -0.441079,-0.22919 -4.015216,-14.05083 -4.888218,-18.90338 -2.095512,-11.64767 -2.059372,-20.48204 0.119857,-29.29314 2.482154,-10.03591 8.787522,-20.01661 17.626138,-27.90011 2.196207,-1.9589 4.416584,-3.22712 6.477069,-3.69959 0.23248,-0.0533 2.118509,-0.53996 4.191202,-1.08145 l 3.768554,-0.98456 3.373301,0.48348 c 22.508889,3.22603 36.599956,14.55465 46.967006,37.75951 2.951646,6.60672 6.702046,16.6716 6.360256,17.0689 -0.70411,0.81845 -35.568913,12.03074 -70.302175,22.60872 z"
       id="path4660"
       inkscape:connector-curvature="0" />
    <path
       style="fill:#f82424;fill-opacity:0;stroke-width:0.21801719;stroke-miterlimit:4;stroke-dasharray:none"
       d="m 34.317105,223.15612 c -7.378612,2.24714 -13.540461,4.02088 -13.69299,3.94162 -0.441079,-0.22919 -4.015216,-14.05083 -4.888218,-18.90338 -2.095512,-11.64767 -2.059372,-20.48204 0.119857,-29.29314 2.482154,-10.03591 8.787522,-20.01661 17.626138,-27.90011 2.196207,-1.9589 4.416584,-3.22712 6.477069,-3.69959 0.23248,-0.0533 2.118509,-0.53996 4.191202,-1.08145 l 3.768554,-0.98456 3.373301,0.48348 c 22.508889,3.22603 36.599956,14.55465 46.967006,37.75951 2.951646,6.60672 6.702046,16.6716 6.360256,17.0689 -0.70411,0.81845 -35.568913,12.03074 -70.302175,22.60872 z"
       id="path4664"
       inkscape:connector-curvature="0" />
    <path
       style="fill:#f82424;fill-opacity:0;stroke-width:0.21801719;stroke-miterlimit:4;stroke-dasharray:none"
       d="m 38.709475,221.89544 c -9.322876,2.85335 -17.235346,5.2316 -17.583272,5.28504 l -0.632582,0.0971 -0.833367,-2.88462 c -4.674731,-16.18174 -6.219491,-27.22704 -5.244637,-37.49996 1.197659,-12.62043 6.828352,-24.02659 16.556805,-33.53929 3.945348,-3.85785 4.704767,-4.46626 6.28571,-5.03585 0.766731,-0.27619 1.675245,-0.68495 2.018954,-0.90826 0.464918,-0.30205 0.817801,-0.3888 1.378278,-0.33882 0.543432,0.0489 1.591231,-0.19811 3.760886,-0.8855 l 3.007547,-0.95274 2.926073,0.34725 c 11.33338,1.34496 21.300562,5.28235 28.985712,11.45042 8.496361,6.81915 14.74208,16.01788 20.720558,30.51742 1.57871,3.82877 4.97323,12.90696 4.88517,13.0647 -0.0328,0.0589 -4.39912,1.58892 -9.70281,3.40013 -10.627709,3.62939 -30.557448,9.93413 -56.529076,17.88295 z"
       id="path4666"
       inkscape:connector-curvature="0" />
    <path
       style="fill:#f20808;fill-opacity:0;fill-rule:evenodd;stroke-width:0.28859502;stroke-miterlimit:4;stroke-dasharray:none"
       d="m 37.94351,222.07464 c -9.459891,2.85637 -17.284342,5.14957 -17.387665,5.09595 -0.305348,-0.15841 -3.725382,-13.30513 -4.585002,-17.62496 -3.133857,-15.74824 -2.09388,-28.49718 3.270291,-40.09062 2.519759,-5.44587 7.515694,-12.06571 13.049297,-17.29085 2.774717,-2.62008 3.628514,-3.26818 5.127662,-3.89226 0.98923,-0.41186 2.113663,-0.8277 2.498699,-0.92415 0.385045,-0.0965 2.399203,-0.60801 4.475943,-1.13681 l 3.775858,-0.96144 4.385033,0.68334 c 17.724308,2.76215 30.454985,11.14852 39.779299,26.2048 3.867081,6.24427 9.319025,18.38385 11.863325,26.41543 l 0.62067,1.95926 -1.93747,0.80143 c -3.380723,1.39843 -47.058371,15.36276 -64.93594,20.76088 z"
       id="path4668"
       inkscape:connector-curvature="0" />
    <path
       style="fill:#f20808;fill-opacity:0;fill-rule:evenodd;stroke-width:0.28859502;stroke-miterlimit:4;stroke-dasharray:none"
       d="m 37.94351,222.07464 c -9.459891,2.85637 -17.284342,5.14957 -17.387665,5.09595 -0.305348,-0.15841 -3.725382,-13.30513 -4.585002,-17.62496 -3.133857,-15.74824 -2.09388,-28.49718 3.270291,-40.09062 2.519759,-5.44587 7.515694,-12.06571 13.049297,-17.29085 2.774717,-2.62008 3.628514,-3.26818 5.127662,-3.89226 0.98923,-0.41186 2.113663,-0.8277 2.498699,-0.92415 0.385045,-0.0965 2.399203,-0.60801 4.475943,-1.13681 l 3.775858,-0.96144 4.385033,0.68334 c 17.724308,2.76215 30.454985,11.14852 39.779299,26.2048 3.867081,6.24427 9.319025,18.38385 11.863325,26.41543 l 0.62067,1.95926 -1.93747,0.80143 c -3.380723,1.39843 -47.058371,15.36276 -64.93594,20.76088 z"
       id="path4670"
       inkscape:connector-curvature="0" />
    <path
       inkscape:connector-curvature="0"
       d="m 106.81567,131.83094 c -0.0357,0.0211 -0.0645,0.0409 -0.0961,0.0613 0.0102,0.003 0.0179,0.006 0.0343,0.007 -0.0295,0.007 -0.0614,0.0177 -0.094,0.0314 -0.003,0.002 -0.007,0.005 -0.0101,0.007 -0.28139,0.21394 -0.58632,0.39823 -0.90157,0.5581 -0.42575,0.21588 -0.87707,0.37743 -1.31554,0.56611 -0.47169,0.20302 -0.89537,0.28208 -1.25924,0.27227 -29.762334,24.42759 -23.598326,53.14827 -15.722124,79.25156 26.881854,-8.29411 56.997344,-16.92446 84.878514,-26.88832 -8.68825,-23.9744 -18.80882,-52.42701 -57.7933,-55.68195 -0.0597,0.0221 -0.11889,0.0447 -0.18238,0.0649 -0.3671,0.11644 -0.73433,0.2331 -1.10159,0.34897 -0.54987,0.17342 -1.09957,0.34676 -1.64785,0.52515 -0.5077,0.16071 -1.02344,0.29602 -1.52536,0.47388 -0.70558,0.29296 -1.19397,0.48676 -1.98926,0.42859 -0.0493,-0.003 -0.14515,-0.0119 -0.21237,-0.024 -0.27084,0.0538 -0.31736,0.0285 -0.67499,-0.0795 -0.15156,0.0283 -0.286,0.0549 -0.38694,0.0794 z"
       style="fill:#cdad00;fill-opacity:0.98492462;fill-rule:evenodd;stroke:#cdad00;stroke-width:0.21801719;stroke-linecap:butt;stroke-linejoin:miter;stroke-miterlimit:4;stroke-dasharray:none;stroke-opacity:1"
       id="path4672" />
    <path
       inkscape:connector-curvature="0"
       id="path4674"
       d="M 103.17345,133.33312 99.306693,106.43339 114.53655,130.0144"
       style="fill:#f82424;fill-opacity:0;stroke:#cdad00;stroke-width:0.21801719;stroke-linecap:butt;stroke-linejoin:miter;stroke-miterlimit:4;stroke-dasharray:none;stroke-opacity:1" />
    <path
       inkscape:connector-curvature="0"
       id="path4676"
       d="m 101.36398,208.11465 c -7.378604,2.24714 -13.540444,4.02089 -13.692966,3.94161 -0.441087,-0.22918 -4.015224,-14.05083 -4.888244,-18.90339 -2.095503,-11.64767 -2.059345,-20.48203 0.119841,-29.29312 2.482171,-10.03589 8.787556,-20.0166 17.626179,-27.9001 2.19619,-1.95889 4.41658,-3.22712 6.47705,-3.6996 0.23247,-0.0533 2.11852,-0.53995 4.1912,-1.08145 l 3.76855,-0.98456 3.37331,0.48349 c 22.50888,3.22602 36.59996,14.55465 46.96701,37.75952 2.95163,6.60674 6.70203,16.67159 6.36025,17.0689 -0.70412,0.81844 -35.56892,12.03073 -70.30218,22.6087 z"
       style="fill:#cdad00;fill-opacity:0.98492462;stroke:#cdad00;stroke-width:0.21801719;stroke-miterlimit:4;stroke-dasharray:none;stroke-opacity:1" />
    <path
       inkscape:connector-curvature="0"
       id="path4678"
       d="m 108.15343,131.58905 c -0.34445,-0.038 -1.58091,0.3149 -2.74764,0.7838 -1.74693,0.70211 -2.11794,0.77718 -2.1021,0.42538 0.0108,-0.23496 -0.78647,-5.91696 -1.7712,-12.62667 -0.98473,-6.70969 -1.680788,-12.13376 -1.546786,-12.0535 0.185456,0.11107 7.027486,10.62135 13.945076,21.42149 0.25485,0.3979 0.0229,0.51956 -2.43472,1.27898 -1.49401,0.46156 -2.99818,0.80833 -3.34263,0.77052 z"
       style="fill:#cdad00;fill-opacity:0.98492462;stroke:#cdad00;stroke-width:0.21801719;stroke-miterlimit:4;stroke-dasharray:none;stroke-opacity:1" />
    <path
       inkscape:connector-curvature="0"
       id="path4680"
       d="m 101.36398,208.11465 c -7.378604,2.24714 -13.540444,4.02089 -13.692966,3.94161 -0.441087,-0.22918 -4.015224,-14.05083 -4.888244,-18.90339 -2.095503,-11.64767 -2.059345,-20.48203 0.119841,-29.29312 2.482171,-10.03589 8.787556,-20.0166 17.626179,-27.9001 2.19619,-1.95889 4.41658,-3.22712 6.47705,-3.6996 0.23247,-0.0533 2.11852,-0.53995 4.1912,-1.08145 l 3.76855,-0.98456 3.37331,0.48349 c 22.50888,3.22602 36.59996,14.55465 46.96701,37.75952 2.95163,6.60674 6.70203,16.67159 6.36025,17.0689 -0.70412,0.81844 -35.56892,12.03073 -70.30218,22.6087 z"
       style="fill:#cdad00;fill-opacity:0.98492462;stroke:#cdad00;stroke-width:0.21801719;stroke-miterlimit:4;stroke-dasharray:none;stroke-opacity:1" />
    <path
       inkscape:connector-curvature="0"
       id="path4682"
       d="m 105.75636,206.85399 c -9.322888,2.85334 -17.23535,5.23159 -17.583275,5.28503 l -0.632572,0.0971 -0.833376,-2.88462 c -4.674732,-16.18173 -6.219482,-27.22705 -5.244621,-37.49998 1.197642,-12.62041 6.828344,-24.02657 16.556788,-33.53928 3.945346,-3.85785 4.704766,-4.46627 6.285716,-5.03585 0.76674,-0.27618 1.67525,-0.68495 2.01894,-0.90826 0.46493,-0.30204 0.81779,-0.3888 1.37828,-0.3388 0.54344,0.0489 1.59124,-0.19821 3.7609,-0.88553 l 3.00753,-0.95272 2.92609,0.34723 c 11.33336,1.34496 21.30055,5.28239 28.98568,11.45045 8.49637,6.81914 14.7421,16.01789 20.72057,30.5174 1.57871,3.82878 4.97324,12.90693 4.88519,13.06471 -0.0328,0.0589 -4.39913,1.58893 -9.70283,3.40013 -10.62772,3.62937 -30.55744,9.93415 -56.52906,17.88296 z"
       style="fill:#cdad00;fill-opacity:0.98492462;stroke:#cdad00;stroke-width:0.21801719;stroke-miterlimit:4;stroke-dasharray:none;stroke-opacity:1" />
    <path
       inkscape:connector-curvature="0"
       id="path4684"
       d="m 104.99037,207.03318 c -9.459878,2.85638 -17.28432,5.14957 -17.38765,5.09595 -0.305358,-0.15842 -3.725366,-13.30513 -4.585004,-17.62495 -3.133839,-15.74826 -2.093879,-28.4972 3.27031,-40.09064 2.519749,-5.44585 7.515676,-12.06572 13.049266,-17.29087 2.774728,-2.62005 3.628518,-3.26814 5.127688,-3.89225 0.98922,-0.41182 2.11366,-0.8277 2.4987,-0.92412 0.38504,-0.0965 2.3992,-0.60802 4.47594,-1.13682 l 3.77584,-0.96146 4.38503,0.68336 c 17.72432,2.76214 30.455,11.14853 39.77933,26.20478 3.86706,6.24429 9.31902,18.38387 11.86331,26.41546 l 0.62064,1.95925 -1.93744,0.80143 c -3.38073,1.39845 -47.05839,15.36276 -64.93596,20.76088 z"
       style="fill:#cdad00;fill-opacity:0.98492462;fill-rule:evenodd;stroke:#cdad00;stroke-width:0.21801719;stroke-miterlimit:4;stroke-dasharray:none;stroke-opacity:1" />
    <path
       style="fill:#fbfadb;fill-opacity:1;stroke:#fefcd6;stroke-width:0.2176744px;stroke-linecap:butt;stroke-linejoin:miter;stroke-opacity:1"
       d="M 80.841293,175.60323 C 13.286253,153.17694 20.70534,89.771442 10.236716,107.2937 c -9.69012662,17.17695 2.340202,57.26709 22.2355,73.05331 22.190542,17.6074 50.875726,16.52667 50.875726,16.52667 -0.770489,-7.03343 -2.011107,-15.69335 -2.506649,-21.27045 z"
       id="path4767"
       inkscape:connector-curvature="0"
       sodipodi:nodetypes="ccscc" />
    <path
       sodipodi:nodetypes="ccscc"
       inkscape:connector-curvature="0"
       id="path4769"
       d="m 156.83866,151.83058 c 42.32009,-57.233157 0.007,-103.977472 18.65533,-95.679038 17.81292,8.464365 31.06044,48.168918 23.88362,72.531188 -8.00479,27.17284 -31.73192,43.90465 -31.73192,43.90465 -3.29093,-6.24273 -7.61893,-16.38969 -10.80703,-20.7568 z"
       style="fill:#fbfadb;fill-opacity:1;stroke:#fbfadb;stroke-width:0.2176744px;stroke-linecap:butt;stroke-linejoin:miter;stroke-opacity:1" />
    <path
       inkscape:connector-curvature="0"
       id="path4794"
       d="m 34.317105,223.15612 c -7.378612,2.24714 -13.540461,4.02088 -13.69299,3.94162 -0.441079,-0.22919 -4.015216,-14.05083 -4.888218,-18.90338 -2.095512,-11.64767 -2.059372,-20.48204 0.119857,-29.29314 2.482154,-10.03591 8.787522,-20.01661 17.626138,-27.90011 2.196207,-1.9589 4.416584,-3.22712 6.477069,-3.69959 0.23248,-0.0533 2.118509,-0.53996 4.191202,-1.08145 l 3.768554,-0.98456 3.373301,0.48348 c 22.508889,3.22603 36.599956,14.55465 46.967006,37.75951 2.951646,6.60672 6.702046,16.6716 6.360256,17.0689 -0.70411,0.81845 -35.568913,12.03074 -70.302175,22.60872 z"
       style="fill:#f82424;fill-opacity:0;stroke-width:0.21801719;stroke-miterlimit:4;stroke-dasharray:none" />
    <path
       inkscape:connector-curvature="0"
       id="path4796"
       d="m 34.317105,223.15612 c -7.378612,2.24714 -13.540461,4.02088 -13.69299,3.94162 -0.441079,-0.22919 -4.015216,-14.05083 -4.888218,-18.90338 -2.095512,-11.64767 -2.059372,-20.48204 0.119857,-29.29314 2.482154,-10.03591 8.787522,-20.01661 17.626138,-27.90011 2.196207,-1.9589 4.416584,-3.22712 6.477069,-3.69959 0.23248,-0.0533 2.118509,-0.53996 4.191202,-1.08145 l 3.768554,-0.98456 3.373301,0.48348 c 22.508889,3.22603 36.599956,14.55465 46.967006,37.75951 2.951646,6.60672 6.702046,16.6716 6.360256,17.0689 -0.70411,0.81845 -35.568913,12.03074 -70.302175,22.60872 z"
       style="fill:#f82424;fill-opacity:0;stroke-width:0.21801719;stroke-miterlimit:4;stroke-dasharray:none" />
    <path
       inkscape:connector-curvature="0"
       id="path4798"
       d="m 38.709475,221.89544 c -9.322876,2.85335 -17.235346,5.2316 -17.583272,5.28504 l -0.632582,0.0971 -0.833367,-2.88462 c -4.674731,-16.18174 -6.219491,-27.22704 -5.244637,-37.49996 1.197659,-12.62043 6.828352,-24.02659 16.556805,-33.53929 3.945348,-3.85785 4.704767,-4.46626 6.28571,-5.03585 0.766731,-0.27619 1.675245,-0.68495 2.018954,-0.90826 0.464918,-0.30205 0.817801,-0.3888 1.378278,-0.33882 0.543432,0.0489 1.591231,-0.19811 3.760886,-0.8855 l 3.007547,-0.95274 2.926073,0.34725 c 11.33338,1.34496 21.300562,5.28235 28.985712,11.45042 8.496361,6.81915 14.74208,16.01788 20.720558,30.51742 1.57871,3.82877 4.97323,12.90696 4.88517,13.0647 -0.0328,0.0589 -4.39912,1.58892 -9.70281,3.40013 -10.627709,3.62939 -30.557448,9.93413 -56.529076,17.88295 z"
       style="fill:#f82424;fill-opacity:0;stroke-width:0.21801719;stroke-miterlimit:4;stroke-dasharray:none" />
    <path
       inkscape:connector-curvature="0"
       id="path4800"
       d="m 37.94351,222.07464 c -9.459891,2.85637 -17.284342,5.14957 -17.387665,5.09595 -0.305348,-0.15841 -3.725382,-13.30513 -4.585002,-17.62496 -3.133857,-15.74824 -2.09388,-28.49718 3.270291,-40.09062 2.519759,-5.44587 7.515694,-12.06571 13.049297,-17.29085 2.774717,-2.62008 3.628514,-3.26818 5.127662,-3.89226 0.98923,-0.41186 2.113663,-0.8277 2.498699,-0.92415 0.385045,-0.0965 2.399203,-0.60801 4.475943,-1.13681 l 3.775858,-0.96144 4.385033,0.68334 c 17.724308,2.76215 30.454985,11.14852 39.779299,26.2048 3.867081,6.24427 9.319025,18.38385 11.863325,26.41543 l 0.62067,1.95926 -1.93747,0.80143 c -3.380723,1.39843 -47.058371,15.36276 -64.93594,20.76088 z"
       style="fill:#f20808;fill-opacity:0;fill-rule:evenodd;stroke-width:0.28859502;stroke-miterlimit:4;stroke-dasharray:none" />
    <path
       inkscape:connector-curvature="0"
       id="path4802"
       d="m 37.94351,222.07464 c -9.459891,2.85637 -17.284342,5.14957 -17.387665,5.09595 -0.305348,-0.15841 -3.725382,-13.30513 -4.585002,-17.62496 -3.133857,-15.74824 -2.09388,-28.49718 3.270291,-40.09062 2.519759,-5.44587 7.515694,-12.06571 13.049297,-17.29085 2.774717,-2.62008 3.628514,-3.26818 5.127662,-3.89226 0.98923,-0.41186 2.113663,-0.8277 2.498699,-0.92415 0.385045,-0.0965 2.399203,-0.60801 4.475943,-1.13681 l 3.775858,-0.96144 4.385033,0.68334 c 17.724308,2.76215 30.454985,11.14852 39.779299,26.2048 3.867081,6.24427 9.319025,18.38385 11.863325,26.41543 l 0.62067,1.95926 -1.93747,0.80143 c -3.380723,1.39843 -47.058371,15.36276 -64.93594,20.76088 z"
       style="fill:#f20808;fill-opacity:0;fill-rule:evenodd;stroke-width:0.28859502;stroke-miterlimit:4;stroke-dasharray:none" />
    <path
       id="path4804"
       style="fill:#cdad00;fill-opacity:0.98492462;fill-rule:evenodd;stroke:#cdad00;stroke-width:0.21801719;stroke-linecap:butt;stroke-linejoin:miter;stroke-miterlimit:4;stroke-dasharray:none;stroke-opacity:1"
       d="m 106.81567,131.83094 c -0.0357,0.0211 -0.0645,0.0409 -0.0961,0.0613 0.0102,0.003 0.0179,0.006 0.0343,0.007 -0.0295,0.007 -0.0614,0.0177 -0.094,0.0314 -0.003,0.002 -0.007,0.005 -0.0101,0.007 -0.28139,0.21394 -0.58632,0.39823 -0.90157,0.5581 -0.42575,0.21588 -0.87707,0.37743 -1.31554,0.56611 -0.47169,0.20302 -0.89537,0.28208 -1.25924,0.27227 -29.762334,24.42759 -23.598326,53.14827 -15.722124,79.25156 26.881854,-8.29411 56.997344,-16.92446 84.878514,-26.88832 -8.68825,-23.9744 -18.80882,-52.42701 -57.7933,-55.68195 -0.0597,0.0221 -0.11889,0.0447 -0.18238,0.0649 -0.3671,0.11644 -0.73433,0.2331 -1.10159,0.34897 -0.54987,0.17342 -1.09957,0.34676 -1.64785,0.52515 -0.5077,0.16071 -1.02344,0.29602 -1.52536,0.47388 -0.70558,0.29296 -1.19397,0.48676 -1.98926,0.42859 -0.0493,-0.003 -0.14515,-0.0119 -0.21237,-0.024 -0.27084,0.0538 -0.31736,0.0285 -0.67499,-0.0795 -0.15156,0.0283 -0.286,0.0549 -0.38694,0.0794 z"
       inkscape:connector-curvature="0" />
    <path
       style="fill:#f82424;fill-opacity:0;stroke:#cdad00;stroke-width:0.21801719;stroke-linecap:butt;stroke-linejoin:miter;stroke-miterlimit:4;stroke-dasharray:none;stroke-opacity:1"
       d="M 103.17345,133.33312 99.306693,106.43339 114.53655,130.0144"
       id="path4806"
       inkscape:connector-curvature="0" />
    <path
       style="fill:#cdad00;fill-opacity:0.98492462;stroke:#cdad00;stroke-width:0.21801719;stroke-miterlimit:4;stroke-dasharray:none;stroke-opacity:1"
       d="m 101.36398,208.11465 c -7.378604,2.24714 -13.540444,4.02089 -13.692966,3.94161 -0.441087,-0.22918 -4.015224,-14.05083 -4.888244,-18.90339 -2.095503,-11.64767 -2.059345,-20.48203 0.119841,-29.29312 2.482171,-10.03589 8.787556,-20.0166 17.626179,-27.9001 2.19619,-1.95889 4.41658,-3.22712 6.47705,-3.6996 0.23247,-0.0533 2.11852,-0.53995 4.1912,-1.08145 l 3.76855,-0.98456 3.37331,0.48349 c 22.50888,3.22602 36.59996,14.55465 46.96701,37.75952 2.95163,6.60674 6.70203,16.67159 6.36025,17.0689 -0.70412,0.81844 -35.56892,12.03073 -70.30218,22.6087 z"
       id="path4808"
       inkscape:connector-curvature="0" />
    <path
       style="fill:#cdad00;fill-opacity:0.98492462;stroke:#cdad00;stroke-width:0.21801719;stroke-miterlimit:4;stroke-dasharray:none;stroke-opacity:1"
       d="m 108.15343,131.58905 c -0.34445,-0.038 -1.58091,0.3149 -2.74764,0.7838 -1.74693,0.70211 -2.11794,0.77718 -2.1021,0.42538 0.0108,-0.23496 -0.78647,-5.91696 -1.7712,-12.62667 -0.98473,-6.70969 -1.680788,-12.13376 -1.546786,-12.0535 0.185456,0.11107 7.027486,10.62135 13.945076,21.42149 0.25485,0.3979 0.0229,0.51956 -2.43472,1.27898 -1.49401,0.46156 -2.99818,0.80833 -3.34263,0.77052 z"
       id="path4810"
       inkscape:connector-curvature="0" />
    <path
       style="fill:#cdad00;fill-opacity:0.98492462;stroke:#cdad00;stroke-width:0.21801719;stroke-miterlimit:4;stroke-dasharray:none;stroke-opacity:1"
       d="m 101.36398,208.11465 c -7.378604,2.24714 -13.540444,4.02089 -13.692966,3.94161 -0.441087,-0.22918 -4.015224,-14.05083 -4.888244,-18.90339 -2.095503,-11.64767 -2.059345,-20.48203 0.119841,-29.29312 2.482171,-10.03589 8.787556,-20.0166 17.626179,-27.9001 2.19619,-1.95889 4.41658,-3.22712 6.47705,-3.6996 0.23247,-0.0533 2.11852,-0.53995 4.1912,-1.08145 l 3.76855,-0.98456 3.37331,0.48349 c 22.50888,3.22602 36.59996,14.55465 46.96701,37.75952 2.95163,6.60674 6.70203,16.67159 6.36025,17.0689 -0.70412,0.81844 -35.56892,12.03073 -70.30218,22.6087 z"
       id="path4812"
       inkscape:connector-curvature="0" />
    <path
       style="fill:#cdad00;fill-opacity:0.98492462;stroke:#cdad00;stroke-width:0.21801719;stroke-miterlimit:4;stroke-dasharray:none;stroke-opacity:1"
       d="m 105.75636,206.85399 c -9.322888,2.85334 -17.23535,5.23159 -17.583275,5.28503 l -0.632572,0.0971 -0.833376,-2.88462 c -4.674732,-16.18173 -6.219482,-27.22705 -5.244621,-37.49998 1.197642,-12.62041 6.828344,-24.02657 16.556788,-33.53928 3.945346,-3.85785 4.704766,-4.46627 6.285716,-5.03585 0.76674,-0.27618 1.67525,-0.68495 2.01894,-0.90826 0.46493,-0.30204 0.81779,-0.3888 1.37828,-0.3388 0.54344,0.0489 1.59124,-0.19821 3.7609,-0.88553 l 3.00753,-0.95272 2.92609,0.34723 c 11.33336,1.34496 21.30055,5.28239 28.98568,11.45045 8.49637,6.81914 14.7421,16.01789 20.72057,30.5174 1.57871,3.82878 4.97324,12.90693 4.88519,13.06471 -0.0328,0.0589 -4.39913,1.58893 -9.70283,3.40013 -10.62772,3.62937 -30.55744,9.93415 -56.52906,17.88296 z"
       id="path4814"
       inkscape:connector-curvature="0" />
    <path
       style="fill:#cdad00;fill-opacity:0.98492462;fill-rule:evenodd;stroke:#cdad00;stroke-width:0.21801719;stroke-miterlimit:4;stroke-dasharray:none;stroke-opacity:1"
       d="m 104.99037,207.03318 c -9.459878,2.85638 -17.28432,5.14957 -17.38765,5.09595 -0.305358,-0.15842 -3.725366,-13.30513 -4.585004,-17.62495 -3.133839,-15.74826 -2.093879,-28.4972 3.27031,-40.09064 2.519749,-5.44585 7.515676,-12.06572 13.049266,-17.29087 2.774728,-2.62005 3.628518,-3.26814 5.127688,-3.89225 0.98922,-0.41182 2.11366,-0.8277 2.4987,-0.92412 0.38504,-0.0965 2.3992,-0.60802 4.47594,-1.13682 l 3.77584,-0.96146 4.38503,0.68336 c 17.72432,2.76214 30.455,11.14853 39.77933,26.20478 3.86706,6.24429 9.31902,18.38387 11.86331,26.41546 l 0.62064,1.95925 -1.93744,0.80143 c -3.38073,1.39845 -47.05839,15.36276 -64.93596,20.76088 z"
       id="path4816"
       inkscape:connector-curvature="0" />
    <path
       sodipodi:nodetypes="ccscc"
       inkscape:connector-curvature="0"
       id="path4818"
       d="M 80.841293,175.60323 C 13.286253,153.17694 20.70534,89.771442 10.236716,107.2937 c -9.69012662,17.17695 2.340202,57.26709 22.2355,73.05331 22.190542,17.6074 50.875726,16.52667 50.875726,16.52667 -0.770489,-7.03343 -2.011107,-15.69335 -2.506649,-21.27045 z"
       style="fill:#fbfadb;fill-opacity:1;stroke:#fefcd6;stroke-width:0.2176744px;stroke-linecap:butt;stroke-linejoin:miter;stroke-opacity:1" />
    <path
       style="fill:#fbfadb;fill-opacity:1;stroke:#fbfadb;stroke-width:0.2176744px;stroke-linecap:butt;stroke-linejoin:miter;stroke-opacity:1"
       d="m 156.83866,151.83058 c 42.32009,-57.233157 0.007,-103.977472 18.65533,-95.679038 17.81292,8.464365 31.06044,48.168918 23.88362,72.531188 -8.00479,27.17284 -31.73192,43.90465 -31.73192,43.90465 -3.29093,-6.24273 -7.61893,-16.38969 -10.80703,-20.7568 z"
       id="path4820"
       inkscape:connector-curvature="0"
       sodipodi:nodetypes="ccscc" />
    <path
       inkscape:connector-curvature="0"
       id="path4822"
       d="m 34.317105,223.15612 c -7.378612,2.24714 -13.540461,4.02088 -13.69299,3.94162 -0.441079,-0.22919 -4.015216,-14.05083 -4.888218,-18.90338 -2.095512,-11.64767 -2.059372,-20.48204 0.119857,-29.29314 2.482154,-10.03591 8.787522,-20.01661 17.626138,-27.90011 2.196207,-1.9589 4.416584,-3.22712 6.477069,-3.69959 0.23248,-0.0533 2.118509,-0.53996 4.191202,-1.08145 l 3.768554,-0.98456 3.373301,0.48348 c 22.508889,3.22603 36.599956,14.55465 46.967006,37.75951 2.951646,6.60672 6.702046,16.6716 6.360256,17.0689 -0.70411,0.81845 -35.568913,12.03074 -70.302175,22.60872 z"
       style="fill:#f82424;fill-opacity:0;stroke-width:0.21801719;stroke-miterlimit:4;stroke-dasharray:none" />
    <path
       inkscape:connector-curvature="0"
       id="path4824"
       d="m 34.317105,223.15612 c -7.378612,2.24714 -13.540461,4.02088 -13.69299,3.94162 -0.441079,-0.22919 -4.015216,-14.05083 -4.888218,-18.90338 -2.095512,-11.64767 -2.059372,-20.48204 0.119857,-29.29314 2.482154,-10.03591 8.787522,-20.01661 17.626138,-27.90011 2.196207,-1.9589 4.416584,-3.22712 6.477069,-3.69959 0.23248,-0.0533 2.118509,-0.53996 4.191202,-1.08145 l 3.768554,-0.98456 3.373301,0.48348 c 22.508889,3.22603 36.599956,14.55465 46.967006,37.75951 2.951646,6.60672 6.702046,16.6716 6.360256,17.0689 -0.70411,0.81845 -35.568913,12.03074 -70.302175,22.60872 z"
       style="fill:#f82424;fill-opacity:0;stroke-width:0.21801719;stroke-miterlimit:4;stroke-dasharray:none" />
    <path
       inkscape:connector-curvature="0"
       id="path4826"
       d="m 38.709475,221.89544 c -9.322876,2.85335 -17.235346,5.2316 -17.583272,5.28504 l -0.632582,0.0971 -0.833367,-2.88462 c -4.674731,-16.18174 -6.219491,-27.22704 -5.244637,-37.49996 1.197659,-12.62043 6.828352,-24.02659 16.556805,-33.53929 3.945348,-3.85785 4.704767,-4.46626 6.28571,-5.03585 0.766731,-0.27619 1.675245,-0.68495 2.018954,-0.90826 0.464918,-0.30205 0.817801,-0.3888 1.378278,-0.33882 0.543432,0.0489 1.591231,-0.19811 3.760886,-0.8855 l 3.007547,-0.95274 2.926073,0.34725 c 11.33338,1.34496 21.300562,5.28235 28.985712,11.45042 8.496361,6.81915 14.74208,16.01788 20.720558,30.51742 1.57871,3.82877 4.97323,12.90696 4.88517,13.0647 -0.0328,0.0589 -4.39912,1.58892 -9.70281,3.40013 -10.627709,3.62939 -30.557448,9.93413 -56.529076,17.88295 z"
       style="fill:#f82424;fill-opacity:0;stroke-width:0.21801719;stroke-miterlimit:4;stroke-dasharray:none" />
    <path
       inkscape:connector-curvature="0"
       id="path4828"
       d="m 37.94351,222.07464 c -9.459891,2.85637 -17.284342,5.14957 -17.387665,5.09595 -0.305348,-0.15841 -3.725382,-13.30513 -4.585002,-17.62496 -3.133857,-15.74824 -2.09388,-28.49718 3.270291,-40.09062 2.519759,-5.44587 7.515694,-12.06571 13.049297,-17.29085 2.774717,-2.62008 3.628514,-3.26818 5.127662,-3.89226 0.98923,-0.41186 2.113663,-0.8277 2.498699,-0.92415 0.385045,-0.0965 2.399203,-0.60801 4.475943,-1.13681 l 3.775858,-0.96144 4.385033,0.68334 c 17.724308,2.76215 30.454985,11.14852 39.779299,26.2048 3.867081,6.24427 9.319025,18.38385 11.863325,26.41543 l 0.62067,1.95926 -1.93747,0.80143 c -3.380723,1.39843 -47.058371,15.36276 -64.93594,20.76088 z"
       style="fill:#f20808;fill-opacity:0;fill-rule:evenodd;stroke-width:0.28859502;stroke-miterlimit:4;stroke-dasharray:none" />
    <path
       inkscape:connector-curvature="0"
       id="path4830"
       d="m 37.94351,222.07464 c -9.459891,2.85637 -17.284342,5.14957 -17.387665,5.09595 -0.305348,-0.15841 -3.725382,-13.30513 -4.585002,-17.62496 -3.133857,-15.74824 -2.09388,-28.49718 3.270291,-40.09062 2.519759,-5.44587 7.515694,-12.06571 13.049297,-17.29085 2.774717,-2.62008 3.628514,-3.26818 5.127662,-3.89226 0.98923,-0.41186 2.113663,-0.8277 2.498699,-0.92415 0.385045,-0.0965 2.399203,-0.60801 4.475943,-1.13681 l 3.775858,-0.96144 4.385033,0.68334 c 17.724308,2.76215 30.454985,11.14852 39.779299,26.2048 3.867081,6.24427 9.319025,18.38385 11.863325,26.41543 l 0.62067,1.95926 -1.93747,0.80143 c -3.380723,1.39843 -47.058371,15.36276 -64.93594,20.76088 z"
       style="fill:#f20808;fill-opacity:0;fill-rule:evenodd;stroke-width:0.28859502;stroke-miterlimit:4;stroke-dasharray:none" />
    <path
       id="path4832"
       style="fill:#cdad00;fill-opacity:0.98492462;fill-rule:evenodd;stroke:#cdad00;stroke-width:0.21801719;stroke-linecap:butt;stroke-linejoin:miter;stroke-miterlimit:4;stroke-dasharray:none;stroke-opacity:1"
       d="m 106.81567,131.83094 c -0.0357,0.0211 -0.0645,0.0409 -0.0961,0.0613 0.0102,0.003 0.0179,0.006 0.0343,0.007 -0.0295,0.007 -0.0614,0.0177 -0.094,0.0314 -0.003,0.002 -0.007,0.005 -0.0101,0.007 -0.28139,0.21394 -0.58632,0.39823 -0.90157,0.5581 -0.42575,0.21588 -0.87707,0.37743 -1.31554,0.56611 -0.47169,0.20302 -0.89537,0.28208 -1.25924,0.27227 -29.762334,24.42759 -23.598326,53.14827 -15.722124,79.25156 26.881854,-8.29411 56.997344,-16.92446 84.878514,-26.88832 -8.68825,-23.9744 -18.80882,-52.42701 -57.7933,-55.68195 -0.0597,0.0221 -0.11889,0.0447 -0.18238,0.0649 -0.3671,0.11644 -0.73433,0.2331 -1.10159,0.34897 -0.54987,0.17342 -1.09957,0.34676 -1.64785,0.52515 -0.5077,0.16071 -1.02344,0.29602 -1.52536,0.47388 -0.70558,0.29296 -1.19397,0.48676 -1.98926,0.42859 -0.0493,-0.003 -0.14515,-0.0119 -0.21237,-0.024 -0.27084,0.0538 -0.31736,0.0285 -0.67499,-0.0795 -0.15156,0.0283 -0.286,0.0549 -0.38694,0.0794 z"
       inkscape:connector-curvature="0" />
    <path
       style="fill:#f82424;fill-opacity:0;stroke:#cdad00;stroke-width:0.21801719;stroke-linecap:butt;stroke-linejoin:miter;stroke-miterlimit:4;stroke-dasharray:none;stroke-opacity:1"
       d="M 103.17345,133.33312 99.306693,106.43339 114.53655,130.0144"
       id="path4834"
       inkscape:connector-curvature="0" />
    <path
       style="fill:#cdad00;fill-opacity:0.98492462;stroke:#cdad00;stroke-width:0.21801719;stroke-miterlimit:4;stroke-dasharray:none;stroke-opacity:1"
       d="m 101.36398,208.11465 c -7.378604,2.24714 -13.540444,4.02089 -13.692966,3.94161 -0.441087,-0.22918 -4.015224,-14.05083 -4.888244,-18.90339 -2.095503,-11.64767 -2.059345,-20.48203 0.119841,-29.29312 2.482171,-10.03589 8.787556,-20.0166 17.626179,-27.9001 2.19619,-1.95889 4.41658,-3.22712 6.47705,-3.6996 0.23247,-0.0533 2.11852,-0.53995 4.1912,-1.08145 l 3.76855,-0.98456 3.37331,0.48349 c 22.50888,3.22602 36.59996,14.55465 46.96701,37.75952 2.95163,6.60674 6.70203,16.67159 6.36025,17.0689 -0.70412,0.81844 -35.56892,12.03073 -70.30218,22.6087 z"
       id="path4836"
       inkscape:connector-curvature="0" />
    <path
       style="fill:#cdad00;fill-opacity:0.98492462;stroke:#cdad00;stroke-width:0.21801719;stroke-miterlimit:4;stroke-dasharray:none;stroke-opacity:1"
       d="m 108.15343,131.58905 c -0.34445,-0.038 -1.58091,0.3149 -2.74764,0.7838 -1.74693,0.70211 -2.11794,0.77718 -2.1021,0.42538 0.0108,-0.23496 -0.78647,-5.91696 -1.7712,-12.62667 -0.98473,-6.70969 -1.680788,-12.13376 -1.546786,-12.0535 0.185456,0.11107 7.027486,10.62135 13.945076,21.42149 0.25485,0.3979 0.0229,0.51956 -2.43472,1.27898 -1.49401,0.46156 -2.99818,0.80833 -3.34263,0.77052 z"
       id="path4838"
       inkscape:connector-curvature="0" />
    <path
       style="fill:#cdad00;fill-opacity:0.98492462;stroke:#cdad00;stroke-width:0.21801719;stroke-miterlimit:4;stroke-dasharray:none;stroke-opacity:1"
       d="m 101.36398,208.11465 c -7.378604,2.24714 -13.540444,4.02089 -13.692966,3.94161 -0.441087,-0.22918 -4.015224,-14.05083 -4.888244,-18.90339 -2.095503,-11.64767 -2.059345,-20.48203 0.119841,-29.29312 2.482171,-10.03589 8.787556,-20.0166 17.626179,-27.9001 2.19619,-1.95889 4.41658,-3.22712 6.47705,-3.6996 0.23247,-0.0533 2.11852,-0.53995 4.1912,-1.08145 l 3.76855,-0.98456 3.37331,0.48349 c 22.50888,3.22602 36.59996,14.55465 46.96701,37.75952 2.95163,6.60674 6.70203,16.67159 6.36025,17.0689 -0.70412,0.81844 -35.56892,12.03073 -70.30218,22.6087 z"
       id="path4840"
       inkscape:connector-curvature="0" />
    <path
       style="fill:#cdad00;fill-opacity:0.98492462;stroke:#cdad00;stroke-width:0.21801719;stroke-miterlimit:4;stroke-dasharray:none;stroke-opacity:1"
       d="m 105.75636,206.85399 c -9.322888,2.85334 -17.23535,5.23159 -17.583275,5.28503 l -0.632572,0.0971 -0.833376,-2.88462 c -4.674732,-16.18173 -6.219482,-27.22705 -5.244621,-37.49998 1.197642,-12.62041 6.828344,-24.02657 16.556788,-33.53928 3.945346,-3.85785 4.704766,-4.46627 6.285716,-5.03585 0.76674,-0.27618 1.67525,-0.68495 2.01894,-0.90826 0.46493,-0.30204 0.81779,-0.3888 1.37828,-0.3388 0.54344,0.0489 1.59124,-0.19821 3.7609,-0.88553 l 3.00753,-0.95272 2.92609,0.34723 c 11.33336,1.34496 21.30055,5.28239 28.98568,11.45045 8.49637,6.81914 14.7421,16.01789 20.72057,30.5174 1.57871,3.82878 4.97324,12.90693 4.88519,13.06471 -0.0328,0.0589 -4.39913,1.58893 -9.70283,3.40013 -10.62772,3.62937 -30.55744,9.93415 -56.52906,17.88296 z"
       id="path4842"
       inkscape:connector-curvature="0" />
    <path
       style="fill:#cdad00;fill-opacity:0.98492462;fill-rule:evenodd;stroke:#cdad00;stroke-width:0.21801719;stroke-miterlimit:4;stroke-dasharray:none;stroke-opacity:1"
       d="m 104.99037,207.03318 c -9.459878,2.85638 -17.28432,5.14957 -17.38765,5.09595 -0.305358,-0.15842 -3.725366,-13.30513 -4.585004,-17.62495 -3.133839,-15.74826 -2.093879,-28.4972 3.27031,-40.09064 2.519749,-5.44585 7.515676,-12.06572 13.049266,-17.29087 2.774728,-2.62005 3.628518,-3.26814 5.127688,-3.89225 0.98922,-0.41182 2.11366,-0.8277 2.4987,-0.92412 0.38504,-0.0965 2.3992,-0.60802 4.47594,-1.13682 l 3.77584,-0.96146 4.38503,0.68336 c 17.72432,2.76214 30.455,11.14853 39.77933,26.20478 3.86706,6.24429 9.31902,18.38387 11.86331,26.41546 l 0.62064,1.95925 -1.93744,0.80143 c -3.38073,1.39845 -47.05839,15.36276 -64.93596,20.76088 z"
       id="path4844"
       inkscape:connector-curvature="0" />
    <path
       sodipodi:nodetypes="ccscc"
       inkscape:connector-curvature="0"
       id="path4846"
       d="M 80.841293,175.60323 C 13.286253,153.17694 20.70534,89.771442 10.236716,107.2937 c -9.69012662,17.17695 2.340202,57.26709 22.2355,73.05331 22.190542,17.6074 50.875726,16.52667 50.875726,16.52667 -0.770489,-7.03343 -2.011107,-15.69335 -2.506649,-21.27045 z"
       style="fill:#fbfadb;fill-opacity:1;stroke:#fefcd6;stroke-width:0.2176744px;stroke-linecap:butt;stroke-linejoin:miter;stroke-opacity:1" />
    <path
       style="fill:#fbfadb;fill-opacity:1;stroke:#fbfadb;stroke-width:0.2176744px;stroke-linecap:butt;stroke-linejoin:miter;stroke-opacity:1"
       d="m 156.83866,151.83058 c 42.32009,-57.233157 0.007,-103.977472 18.65533,-95.679038 17.81292,8.464365 31.06044,48.168918 23.88362,72.531188 -8.00479,27.17284 -31.73192,43.90465 -31.73192,43.90465 -3.29093,-6.24273 -7.61893,-16.38969 -10.80703,-20.7568 z"
       id="path4848"
       inkscape:connector-curvature="0"
       sodipodi:nodetypes="ccscc" />
    <path
       style="fill:#f82424;fill-opacity:0;stroke-width:0.21801719;stroke-miterlimit:4;stroke-dasharray:none"
       d="m 34.317105,223.15612 c -7.378612,2.24714 -13.540461,4.02088 -13.69299,3.94162 -0.441079,-0.22919 -4.015216,-14.05083 -4.888218,-18.90338 -2.095512,-11.64767 -2.059372,-20.48204 0.119857,-29.29314 2.482154,-10.03591 8.787522,-20.01661 17.626138,-27.90011 2.196207,-1.9589 4.416584,-3.22712 6.477069,-3.69959 0.23248,-0.0533 2.118509,-0.53996 4.191202,-1.08145 l 3.768554,-0.98456 3.373301,0.48348 c 22.508889,3.22603 36.599956,14.55465 46.967006,37.75951 2.951646,6.60672 6.702046,16.6716 6.360256,17.0689 -0.70411,0.81845 -35.568913,12.03074 -70.302175,22.60872 z"
       id="path4850"
       inkscape:connector-curvature="0" />
    <path
       style="fill:#f82424;fill-opacity:0;stroke-width:0.21801719;stroke-miterlimit:4;stroke-dasharray:none"
       d="m 34.317105,223.15612 c -7.378612,2.24714 -13.540461,4.02088 -13.69299,3.94162 -0.441079,-0.22919 -4.015216,-14.05083 -4.888218,-18.90338 -2.095512,-11.64767 -2.059372,-20.48204 0.119857,-29.29314 2.482154,-10.03591 8.787522,-20.01661 17.626138,-27.90011 2.196207,-1.9589 4.416584,-3.22712 6.477069,-3.69959 0.23248,-0.0533 2.118509,-0.53996 4.191202,-1.08145 l 3.768554,-0.98456 3.373301,0.48348 c 22.508889,3.22603 36.599956,14.55465 46.967006,37.75951 2.951646,6.60672 6.702046,16.6716 6.360256,17.0689 -0.70411,0.81845 -35.568913,12.03074 -70.302175,22.60872 z"
       id="path4852"
       inkscape:connector-curvature="0" />
    <path
       style="fill:#f82424;fill-opacity:0;stroke-width:0.21801719;stroke-miterlimit:4;stroke-dasharray:none"
       d="m 38.709475,221.89544 c -9.322876,2.85335 -17.235346,5.2316 -17.583272,5.28504 l -0.632582,0.0971 -0.833367,-2.88462 c -4.674731,-16.18174 -6.219491,-27.22704 -5.244637,-37.49996 1.197659,-12.62043 6.828352,-24.02659 16.556805,-33.53929 3.945348,-3.85785 4.704767,-4.46626 6.28571,-5.03585 0.766731,-0.27619 1.675245,-0.68495 2.018954,-0.90826 0.464918,-0.30205 0.817801,-0.3888 1.378278,-0.33882 0.543432,0.0489 1.591231,-0.19811 3.760886,-0.8855 l 3.007547,-0.95274 2.926073,0.34725 c 11.33338,1.34496 21.300562,5.28235 28.985712,11.45042 8.496361,6.81915 14.74208,16.01788 20.720558,30.51742 1.57871,3.82877 4.97323,12.90696 4.88517,13.0647 -0.0328,0.0589 -4.39912,1.58892 -9.70281,3.40013 -10.627709,3.62939 -30.557448,9.93413 -56.529076,17.88295 z"
       id="path4854"
       inkscape:connector-curvature="0" />
    <path
       style="fill:#f20808;fill-opacity:0;fill-rule:evenodd;stroke-width:0.28859502;stroke-miterlimit:4;stroke-dasharray:none"
       d="m 37.94351,222.07464 c -9.459891,2.85637 -17.284342,5.14957 -17.387665,5.09595 -0.305348,-0.15841 -3.725382,-13.30513 -4.585002,-17.62496 -3.133857,-15.74824 -2.09388,-28.49718 3.270291,-40.09062 2.519759,-5.44587 7.515694,-12.06571 13.049297,-17.29085 2.774717,-2.62008 3.628514,-3.26818 5.127662,-3.89226 0.98923,-0.41186 2.113663,-0.8277 2.498699,-0.92415 0.385045,-0.0965 2.399203,-0.60801 4.475943,-1.13681 l 3.775858,-0.96144 4.385033,0.68334 c 17.724308,2.76215 30.454985,11.14852 39.779299,26.2048 3.867081,6.24427 9.319025,18.38385 11.863325,26.41543 l 0.62067,1.95926 -1.93747,0.80143 c -3.380723,1.39843 -47.058371,15.36276 -64.93594,20.76088 z"
       id="path4856"
       inkscape:connector-curvature="0" />
    <path
       style="fill:#f20808;fill-opacity:0;fill-rule:evenodd;stroke-width:0.28859502;stroke-miterlimit:4;stroke-dasharray:none"
       d="m 37.94351,222.07464 c -9.459891,2.85637 -17.284342,5.14957 -17.387665,5.09595 -0.305348,-0.15841 -3.725382,-13.30513 -4.585002,-17.62496 -3.133857,-15.74824 -2.09388,-28.49718 3.270291,-40.09062 2.519759,-5.44587 7.515694,-12.06571 13.049297,-17.29085 2.774717,-2.62008 3.628514,-3.26818 5.127662,-3.89226 0.98923,-0.41186 2.113663,-0.8277 2.498699,-0.92415 0.385045,-0.0965 2.399203,-0.60801 4.475943,-1.13681 l 3.775858,-0.96144 4.385033,0.68334 c 17.724308,2.76215 30.454985,11.14852 39.779299,26.2048 3.867081,6.24427 9.319025,18.38385 11.863325,26.41543 l 0.62067,1.95926 -1.93747,0.80143 c -3.380723,1.39843 -47.058371,15.36276 -64.93594,20.76088 z"
       id="path4858"
       inkscape:connector-curvature="0" />
    <path
       inkscape:connector-curvature="0"
       d="m 106.81567,131.83094 c -0.0357,0.0211 -0.0645,0.0409 -0.0961,0.0613 0.0102,0.003 0.0179,0.006 0.0343,0.007 -0.0295,0.007 -0.0614,0.0177 -0.094,0.0314 -0.003,0.002 -0.007,0.005 -0.0101,0.007 -0.28139,0.21394 -0.58632,0.39823 -0.90157,0.5581 -0.42575,0.21588 -0.87707,0.37743 -1.31554,0.56611 -0.47169,0.20302 -0.89537,0.28208 -1.25924,0.27227 -29.762334,24.42759 -23.598326,53.14827 -15.722124,79.25156 26.881854,-8.29411 56.997344,-16.92446 84.878514,-26.88832 -8.68825,-23.9744 -18.80882,-52.42701 -57.7933,-55.68195 -0.0597,0.0221 -0.11889,0.0447 -0.18238,0.0649 -0.3671,0.11644 -0.73433,0.2331 -1.10159,0.34897 -0.54987,0.17342 -1.09957,0.34676 -1.64785,0.52515 -0.5077,0.16071 -1.02344,0.29602 -1.52536,0.47388 -0.70558,0.29296 -1.19397,0.48676 -1.98926,0.42859 -0.0493,-0.003 -0.14515,-0.0119 -0.21237,-0.024 -0.27084,0.0538 -0.31736,0.0285 -0.67499,-0.0795 -0.15156,0.0283 -0.286,0.0549 -0.38694,0.0794 z"
       style="fill:#cdad00;fill-opacity:0.98492462;fill-rule:evenodd;stroke:#cdad00;stroke-width:0.21801719;stroke-linecap:butt;stroke-linejoin:miter;stroke-miterlimit:4;stroke-dasharray:none;stroke-opacity:1"
       id="path4860" />
    <path
       inkscape:connector-curvature="0"
       id="path4862"
       d="M 103.17345,133.33312 99.306693,106.43339 114.53655,130.0144"
       style="fill:#f82424;fill-opacity:0;stroke:#cdad00;stroke-width:0.21801719;stroke-linecap:butt;stroke-linejoin:miter;stroke-miterlimit:4;stroke-dasharray:none;stroke-opacity:1" />
    <path
       inkscape:connector-curvature="0"
       id="path4864"
       d="m 101.36398,208.11465 c -7.378604,2.24714 -13.540444,4.02089 -13.692966,3.94161 -0.441087,-0.22918 -4.015224,-14.05083 -4.888244,-18.90339 -2.095503,-11.64767 -2.059345,-20.48203 0.119841,-29.29312 2.482171,-10.03589 8.787556,-20.0166 17.626179,-27.9001 2.19619,-1.95889 4.41658,-3.22712 6.47705,-3.6996 0.23247,-0.0533 2.11852,-0.53995 4.1912,-1.08145 l 3.76855,-0.98456 3.37331,0.48349 c 22.50888,3.22602 36.59996,14.55465 46.96701,37.75952 2.95163,6.60674 6.70203,16.67159 6.36025,17.0689 -0.70412,0.81844 -35.56892,12.03073 -70.30218,22.6087 z"
       style="fill:#cdad00;fill-opacity:0.98492462;stroke:#cdad00;stroke-width:0.21801719;stroke-miterlimit:4;stroke-dasharray:none;stroke-opacity:1" />
    <path
       inkscape:connector-curvature="0"
       id="path4866"
       d="m 108.15343,131.58905 c -0.34445,-0.038 -1.58091,0.3149 -2.74764,0.7838 -1.74693,0.70211 -2.11794,0.77718 -2.1021,0.42538 0.0108,-0.23496 -0.78647,-5.91696 -1.7712,-12.62667 -0.98473,-6.70969 -1.680788,-12.13376 -1.546786,-12.0535 0.185456,0.11107 7.027486,10.62135 13.945076,21.42149 0.25485,0.3979 0.0229,0.51956 -2.43472,1.27898 -1.49401,0.46156 -2.99818,0.80833 -3.34263,0.77052 z"
       style="fill:#cdad00;fill-opacity:0.98492462;stroke:#cdad00;stroke-width:0.21801719;stroke-miterlimit:4;stroke-dasharray:none;stroke-opacity:1" />
    <path
       inkscape:connector-curvature="0"
       id="path4868"
       d="m 101.36398,208.11465 c -7.378604,2.24714 -13.540444,4.02089 -13.692966,3.94161 -0.441087,-0.22918 -4.015224,-14.05083 -4.888244,-18.90339 -2.095503,-11.64767 -2.059345,-20.48203 0.119841,-29.29312 2.482171,-10.03589 8.787556,-20.0166 17.626179,-27.9001 2.19619,-1.95889 4.41658,-3.22712 6.47705,-3.6996 0.23247,-0.0533 2.11852,-0.53995 4.1912,-1.08145 l 3.76855,-0.98456 3.37331,0.48349 c 22.50888,3.22602 36.59996,14.55465 46.96701,37.75952 2.95163,6.60674 6.70203,16.67159 6.36025,17.0689 -0.70412,0.81844 -35.56892,12.03073 -70.30218,22.6087 z"
       style="fill:#cdad00;fill-opacity:0.98492462;stroke:#cdad00;stroke-width:0.21801719;stroke-miterlimit:4;stroke-dasharray:none;stroke-opacity:1" />
    <path
       inkscape:connector-curvature="0"
       id="path4870"
       d="m 105.75636,206.85399 c -9.322888,2.85334 -17.23535,5.23159 -17.583275,5.28503 l -0.632572,0.0971 -0.833376,-2.88462 c -4.674732,-16.18173 -6.219482,-27.22705 -5.244621,-37.49998 1.197642,-12.62041 6.828344,-24.02657 16.556788,-33.53928 3.945346,-3.85785 4.704766,-4.46627 6.285716,-5.03585 0.76674,-0.27618 1.67525,-0.68495 2.01894,-0.90826 0.46493,-0.30204 0.81779,-0.3888 1.37828,-0.3388 0.54344,0.0489 1.59124,-0.19821 3.7609,-0.88553 l 3.00753,-0.95272 2.92609,0.34723 c 11.33336,1.34496 21.30055,5.28239 28.98568,11.45045 8.49637,6.81914 14.7421,16.01789 20.72057,30.5174 1.57871,3.82878 4.97324,12.90693 4.88519,13.06471 -0.0328,0.0589 -4.39913,1.58893 -9.70283,3.40013 -10.62772,3.62937 -30.55744,9.93415 -56.52906,17.88296 z"
       style="fill:#cdad00;fill-opacity:0.98492462;stroke:#cdad00;stroke-width:0.21801719;stroke-miterlimit:4;stroke-dasharray:none;stroke-opacity:1" />
    <path
       inkscape:connector-curvature="0"
       id="path4872"
       d="m 104.99037,207.03318 c -9.459878,2.85638 -17.28432,5.14957 -17.38765,5.09595 -0.305358,-0.15842 -3.725366,-13.30513 -4.585004,-17.62495 -3.133839,-15.74826 -2.093879,-28.4972 3.27031,-40.09064 2.519749,-5.44585 7.515676,-12.06572 13.049266,-17.29087 2.774728,-2.62005 3.628518,-3.26814 5.127688,-3.89225 0.98922,-0.41182 2.11366,-0.8277 2.4987,-0.92412 0.38504,-0.0965 2.3992,-0.60802 4.47594,-1.13682 l 3.77584,-0.96146 4.38503,0.68336 c 17.72432,2.76214 30.455,11.14853 39.77933,26.20478 3.86706,6.24429 9.31902,18.38387 11.86331,26.41546 l 0.62064,1.95925 -1.93744,0.80143 c -3.38073,1.39845 -47.05839,15.36276 -64.93596,20.76088 z"
       style="fill:#cdad00;fill-opacity:0.98492462;fill-rule:evenodd;stroke:#cdad00;stroke-width:0.21801719;stroke-miterlimit:4;stroke-dasharray:none;stroke-opacity:1" />
    <path
       style="fill:#fbfadb;fill-opacity:1;stroke:#fefcd6;stroke-width:0.2176744px;stroke-linecap:butt;stroke-linejoin:miter;stroke-opacity:1"
       d="M 80.841293,175.60323 C 13.286253,153.17694 20.70534,89.771442 10.236716,107.2937 c -9.69012662,17.17695 2.340202,57.26709 22.2355,73.05331 22.190542,17.6074 50.875726,16.52667 50.875726,16.52667 -0.770489,-7.03343 -2.011107,-15.69335 -2.506649,-21.27045 z"
       id="path4874"
       inkscape:connector-curvature="0"
       sodipodi:nodetypes="ccscc" />
    <path
       sodipodi:nodetypes="ccscc"
       inkscape:connector-curvature="0"
       id="path4876"
       d="m 156.83866,151.83058 c 42.32009,-57.233157 0.007,-103.977472 18.65533,-95.679038 17.81292,8.464365 31.06044,48.168918 23.88362,72.531188 -8.00479,27.17284 -31.73192,43.90465 -31.73192,43.90465 -3.29093,-6.24273 -7.61893,-16.38969 -10.80703,-20.7568 z"
       style="fill:#fbfadb;fill-opacity:1;stroke:#fbfadb;stroke-width:0.2176744px;stroke-linecap:butt;stroke-linejoin:miter;stroke-opacity:1" />
  </g>
</svg>
