<?xml version="1.0" encoding="UTF-8"?>
<!-- Created with Inkscape (http://www.inkscape.org/) -->
<svg width="194.77mm" height="172.19mm" version="1.1" viewBox="0 0 194.77 172.19" xmlns="http://www.w3.org/2000/svg" xmlns:cc="http://creativecommons.org/ns#" xmlns:dc="http://purl.org/dc/elements/1.1/" xmlns:rdf="http://www.w3.org/1999/02/22-rdf-syntax-ns#">
 <metadata>
  <rdf:RDF>
   <cc:Work rdf:about="">
    <dc:format>image/svg+xml</dc:format>
    <dc:type rdf:resource="http://purl.org/dc/dcmitype/StillImage"/>
    <dc:title/>
   </cc:Work>
  </rdf:RDF>
 </metadata>
 <g transform="translate(-6.7098 -55.085)">
  <g fill-opacity="0">
   <g stroke-width=".21802">
    <path d="m34.317 223.16c-7.3786 2.2471-13.54 4.0209-13.693 3.9416-0.44108-0.22919-4.0152-14.051-4.8882-18.903-2.0955-11.648-2.0594-20.482 0.11986-29.293 2.4822-10.036 8.7875-20.017 17.626-27.9 2.1962-1.9589 4.4166-3.2271 6.4771-3.6996 0.23248-0.0533 2.1185-0.53996 4.1912-1.0814l3.7686-0.98456 3.3733 0.48348c22.509 3.226 36.6 14.555 46.967 37.76 2.9516 6.6067 6.702 16.672 6.3603 17.069-0.70411 0.81845-35.569 12.031-70.302 22.609z"/>
    <path d="m34.317 223.16c-7.3786 2.2471-13.54 4.0209-13.693 3.9416-0.44108-0.22919-4.0152-14.051-4.8882-18.903-2.0955-11.648-2.0594-20.482 0.11986-29.293 2.4822-10.036 8.7875-20.017 17.626-27.9 2.1962-1.9589 4.4166-3.2271 6.4771-3.6996 0.23248-0.0533 2.1185-0.53996 4.1912-1.0814l3.7686-0.98456 3.3733 0.48348c22.509 3.226 36.6 14.555 46.967 37.76 2.9516 6.6067 6.702 16.672 6.3603 17.069-0.70411 0.81845-35.569 12.031-70.302 22.609z"/>
    <path d="m38.709 221.9c-9.3229 2.8534-17.235 5.2316-17.583 5.285l-0.63258 0.0971-0.83337-2.8846c-4.6747-16.182-6.2195-27.227-5.2446-37.5 1.1977-12.62 6.8284-24.027 16.557-33.539 3.9453-3.8578 4.7048-4.4663 6.2857-5.0358 0.76673-0.27619 1.6752-0.68495 2.019-0.90826 0.46492-0.30205 0.8178-0.3888 1.3783-0.33882 0.54343 0.0489 1.5912-0.19811 3.7609-0.8855l3.0075-0.95274 2.9261 0.34725c11.333 1.345 21.301 5.2824 28.986 11.45 8.4964 6.8192 14.742 16.018 20.721 30.517 1.5787 3.8288 4.9732 12.907 4.8852 13.065-0.0328 0.0589-4.3991 1.5889-9.7028 3.4001-10.628 3.6294-30.557 9.9341-56.529 17.883z"/>
   </g>
   <path d="m37.944 222.07c-9.4599 2.8564-17.284 5.1496-17.388 5.096-0.30535-0.15841-3.7254-13.305-4.585-17.625-3.1339-15.748-2.0939-28.497 3.2703-40.091 2.5198-5.4459 7.5157-12.066 13.049-17.291 2.7747-2.6201 3.6285-3.2682 5.1277-3.8923 0.98923-0.41186 2.1137-0.8277 2.4987-0.92415 0.38504-0.0965 2.3992-0.60801 4.4759-1.1368l3.7759-0.96144 4.385 0.68334c17.724 2.7622 30.455 11.149 39.779 26.205 3.8671 6.2443 9.319 18.384 11.863 26.415l0.62067 1.9593-1.9375 0.80143c-3.3807 1.3984-47.058 15.363-64.936 20.761z" stroke-width=".2886"/>
   <path d="m37.944 222.07c-9.4599 2.8564-17.284 5.1496-17.388 5.096-0.30535-0.15841-3.7254-13.305-4.585-17.625-3.1339-15.748-2.0939-28.497 3.2703-40.091 2.5198-5.4459 7.5157-12.066 13.049-17.291 2.7747-2.6201 3.6285-3.2682 5.1277-3.8923 0.98923-0.41186 2.1137-0.8277 2.4987-0.92415 0.38504-0.0965 2.3992-0.60801 4.4759-1.1368l3.7759-0.96144 4.385 0.68334c17.724 2.7622 30.455 11.149 39.779 26.205 3.8671 6.2443 9.319 18.384 11.863 26.415l0.62067 1.9593-1.9375 0.80143c-3.3807 1.3984-47.058 15.363-64.936 20.761z" stroke-width=".2886"/>
  </g>
  <path d="m106.82 131.83c-0.0357 0.0211-0.0645 0.0409-0.0961 0.0613 0.0102 3e-3 0.0179 6e-3 0.0343 7e-3 -0.0295 7e-3 -0.0614 0.0177-0.094 0.0314-3e-3 2e-3 -7e-3 5e-3 -0.0101 7e-3 -0.28139 0.21394-0.58632 0.39823-0.90157 0.5581-0.42575 0.21588-0.87707 0.37743-1.3155 0.56611-0.47169 0.20302-0.89537 0.28208-1.2592 0.27227-29.762 24.428-23.598 53.148-15.722 79.252 26.882-8.2941 56.997-16.924 84.879-26.888-8.6882-23.974-18.809-52.427-57.793-55.682-0.0597 0.0221-0.11889 0.0447-0.18238 0.0649-0.3671 0.11644-0.73433 0.2331-1.1016 0.34897-0.54987 0.17342-1.0996 0.34676-1.6478 0.52515-0.5077 0.16071-1.0234 0.29602-1.5254 0.47388-0.70558 0.29296-1.194 0.48676-1.9893 0.42859-0.0493-3e-3 -0.14515-0.0119-0.21237-0.024-0.27084 0.0538-0.31736 0.0285-0.67499-0.0795-0.15156 0.0283-0.286 0.0549-0.38694 0.0794z" fill="#cdad00" fill-opacity=".98492" fill-rule="evenodd" stroke="#cdad00" stroke-width=".21802"/>
  <path d="m103.17 133.33-3.8668-26.9 15.23 23.581" fill-opacity="0" stroke="#cdad00" stroke-width=".21802"/>
  <g fill="#cdad00" fill-opacity=".98492" stroke="#cdad00" stroke-width=".21802">
   <path d="m101.36 208.11c-7.3786 2.2471-13.54 4.0209-13.693 3.9416-0.44109-0.22918-4.0152-14.051-4.8882-18.903-2.0955-11.648-2.0593-20.482 0.11984-29.293 2.4822-10.036 8.7876-20.017 17.626-27.9 2.1962-1.9589 4.4166-3.2271 6.477-3.6996 0.23247-0.0533 2.1185-0.53995 4.1912-1.0814l3.7686-0.98456 3.3733 0.48349c22.509 3.226 36.6 14.555 46.967 37.76 2.9516 6.6067 6.702 16.672 6.3602 17.069-0.70412 0.81844-35.569 12.031-70.302 22.609z"/>
   <path d="m108.15 131.59c-0.34445-0.038-1.5809 0.3149-2.7476 0.7838-1.7469 0.70211-2.1179 0.77718-2.1021 0.42538 0.0108-0.23496-0.78647-5.917-1.7712-12.627-0.98473-6.7097-1.6808-12.134-1.5468-12.054 0.18546 0.11107 7.0275 10.621 13.945 21.421 0.25485 0.3979 0.0229 0.51956-2.4347 1.279-1.494 0.46156-2.9982 0.80833-3.3426 0.77052z"/>
   <path d="m101.36 208.11c-7.3786 2.2471-13.54 4.0209-13.693 3.9416-0.44109-0.22918-4.0152-14.051-4.8882-18.903-2.0955-11.648-2.0593-20.482 0.11984-29.293 2.4822-10.036 8.7876-20.017 17.626-27.9 2.1962-1.9589 4.4166-3.2271 6.477-3.6996 0.23247-0.0533 2.1185-0.53995 4.1912-1.0814l3.7686-0.98456 3.3733 0.48349c22.509 3.226 36.6 14.555 46.967 37.76 2.9516 6.6067 6.702 16.672 6.3602 17.069-0.70412 0.81844-35.569 12.031-70.302 22.609z"/>
   <path d="m105.76 206.85c-9.3229 2.8533-17.235 5.2316-17.583 5.285l-0.63257 0.0971-0.83338-2.8846c-4.6747-16.182-6.2195-27.227-5.2446-37.5 1.1976-12.62 6.8283-24.027 16.557-33.539 3.9453-3.8578 4.7048-4.4663 6.2857-5.0358 0.76674-0.27618 1.6752-0.68495 2.0189-0.90826 0.46493-0.30204 0.81779-0.3888 1.3783-0.3388 0.54344 0.0489 1.5912-0.19821 3.7609-0.88553l3.0075-0.95272 2.9261 0.34723c11.333 1.345 21.301 5.2824 28.986 11.45 8.4964 6.8191 14.742 16.018 20.721 30.517 1.5787 3.8288 4.9732 12.907 4.8852 13.065-0.0328 0.0589-4.3991 1.5889-9.7028 3.4001-10.628 3.6294-30.557 9.9342-56.529 17.883z"/>
   <path d="m104.99 207.03c-9.4599 2.8564-17.284 5.1496-17.388 5.096-0.30536-0.15842-3.7254-13.305-4.585-17.625-3.1338-15.748-2.0939-28.497 3.2703-40.091 2.5197-5.4458 7.5157-12.066 13.049-17.291 2.7747-2.62 3.6285-3.2681 5.1277-3.8922 0.98922-0.41182 2.1137-0.8277 2.4987-0.92412 0.38504-0.0965 2.3992-0.60802 4.4759-1.1368l3.7758-0.96146 4.385 0.68336c17.724 2.7621 30.455 11.149 39.779 26.205 3.8671 6.2443 9.319 18.384 11.863 26.415l0.62064 1.9592-1.9374 0.80143c-3.3807 1.3984-47.058 15.363-64.936 20.761z" fill-rule="evenodd"/>
  </g>
  <path d="m80.841 175.6c-67.555-22.426-60.136-85.832-70.605-68.31-9.6901 17.177 2.3402 57.267 22.236 73.053 22.191 17.607 50.876 16.527 50.876 16.527-0.77049-7.0334-2.0111-15.693-2.5066-21.27z" fill="#fbfadb" stroke="#fefcd6" stroke-width=".21767px"/>
  <path d="m156.84 151.83c42.32-57.233 7e-3 -103.98 18.655-95.679 17.813 8.4644 31.06 48.169 23.884 72.531-8.0048 27.173-31.732 43.905-31.732 43.905-3.2909-6.2427-7.6189-16.39-10.807-20.757z" fill="#fbfadb" stroke="#fbfadb" stroke-width=".21767px"/>
  <g fill-opacity="0">
   <g stroke-width=".21802">
    <path d="m34.317 223.16c-7.3786 2.2471-13.54 4.0209-13.693 3.9416-0.44108-0.22919-4.0152-14.051-4.8882-18.903-2.0955-11.648-2.0594-20.482 0.11986-29.293 2.4822-10.036 8.7875-20.017 17.626-27.9 2.1962-1.9589 4.4166-3.2271 6.4771-3.6996 0.23248-0.0533 2.1185-0.53996 4.1912-1.0814l3.7686-0.98456 3.3733 0.48348c22.509 3.226 36.6 14.555 46.967 37.76 2.9516 6.6067 6.702 16.672 6.3603 17.069-0.70411 0.81845-35.569 12.031-70.302 22.609z"/>
    <path d="m34.317 223.16c-7.3786 2.2471-13.54 4.0209-13.693 3.9416-0.44108-0.22919-4.0152-14.051-4.8882-18.903-2.0955-11.648-2.0594-20.482 0.11986-29.293 2.4822-10.036 8.7875-20.017 17.626-27.9 2.1962-1.9589 4.4166-3.2271 6.4771-3.6996 0.23248-0.0533 2.1185-0.53996 4.1912-1.0814l3.7686-0.98456 3.3733 0.48348c22.509 3.226 36.6 14.555 46.967 37.76 2.9516 6.6067 6.702 16.672 6.3603 17.069-0.70411 0.81845-35.569 12.031-70.302 22.609z"/>
    <path d="m38.709 221.9c-9.3229 2.8534-17.235 5.2316-17.583 5.285l-0.63258 0.0971-0.83337-2.8846c-4.6747-16.182-6.2195-27.227-5.2446-37.5 1.1977-12.62 6.8284-24.027 16.557-33.539 3.9453-3.8578 4.7048-4.4663 6.2857-5.0358 0.76673-0.27619 1.6752-0.68495 2.019-0.90826 0.46492-0.30205 0.8178-0.3888 1.3783-0.33882 0.54343 0.0489 1.5912-0.19811 3.7609-0.8855l3.0075-0.95274 2.9261 0.34725c11.333 1.345 21.301 5.2824 28.986 11.45 8.4964 6.8192 14.742 16.018 20.721 30.517 1.5787 3.8288 4.9732 12.907 4.8852 13.065-0.0328 0.0589-4.3991 1.5889-9.7028 3.4001-10.628 3.6294-30.557 9.9341-56.529 17.883z"/>
   </g>
   <path d="m37.944 222.07c-9.4599 2.8564-17.284 5.1496-17.388 5.096-0.30535-0.15841-3.7254-13.305-4.585-17.625-3.1339-15.748-2.0939-28.497 3.2703-40.091 2.5198-5.4459 7.5157-12.066 13.049-17.291 2.7747-2.6201 3.6285-3.2682 5.1277-3.8923 0.98923-0.41186 2.1137-0.8277 2.4987-0.92415 0.38504-0.0965 2.3992-0.60801 4.4759-1.1368l3.7759-0.96144 4.385 0.68334c17.724 2.7622 30.455 11.149 39.779 26.205 3.8671 6.2443 9.319 18.384 11.863 26.415l0.62067 1.9593-1.9375 0.80143c-3.3807 1.3984-47.058 15.363-64.936 20.761z" stroke-width=".2886"/>
   <path d="m37.944 222.07c-9.4599 2.8564-17.284 5.1496-17.388 5.096-0.30535-0.15841-3.7254-13.305-4.585-17.625-3.1339-15.748-2.0939-28.497 3.2703-40.091 2.5198-5.4459 7.5157-12.066 13.049-17.291 2.7747-2.6201 3.6285-3.2682 5.1277-3.8923 0.98923-0.41186 2.1137-0.8277 2.4987-0.92415 0.38504-0.0965 2.3992-0.60801 4.4759-1.1368l3.7759-0.96144 4.385 0.68334c17.724 2.7622 30.455 11.149 39.779 26.205 3.8671 6.2443 9.319 18.384 11.863 26.415l0.62067 1.9593-1.9375 0.80143c-3.3807 1.3984-47.058 15.363-64.936 20.761z" stroke-width=".2886"/>
  </g>
  <path d="m106.82 131.83c-0.0357 0.0211-0.0645 0.0409-0.0961 0.0613 0.0102 3e-3 0.0179 6e-3 0.0343 7e-3 -0.0295 7e-3 -0.0614 0.0177-0.094 0.0314-3e-3 2e-3 -7e-3 5e-3 -0.0101 7e-3 -0.28139 0.21394-0.58632 0.39823-0.90157 0.5581-0.42575 0.21588-0.87707 0.37743-1.3155 0.56611-0.47169 0.20302-0.89537 0.28208-1.2592 0.27227-29.762 24.428-23.598 53.148-15.722 79.252 26.882-8.2941 56.997-16.924 84.879-26.888-8.6882-23.974-18.809-52.427-57.793-55.682-0.0597 0.0221-0.11889 0.0447-0.18238 0.0649-0.3671 0.11644-0.73433 0.2331-1.1016 0.34897-0.54987 0.17342-1.0996 0.34676-1.6478 0.52515-0.5077 0.16071-1.0234 0.29602-1.5254 0.47388-0.70558 0.29296-1.194 0.48676-1.9893 0.42859-0.0493-3e-3 -0.14515-0.0119-0.21237-0.024-0.27084 0.0538-0.31736 0.0285-0.67499-0.0795-0.15156 0.0283-0.286 0.0549-0.38694 0.0794z" fill="#cdad00" fill-opacity=".98492" fill-rule="evenodd" stroke="#cdad00" stroke-width=".21802"/>
  <path d="m103.17 133.33-3.8668-26.9 15.23 23.581" fill-opacity="0" stroke="#cdad00" stroke-width=".21802"/>
  <g fill="#cdad00" fill-opacity=".98492" stroke="#cdad00" stroke-width=".21802">
   <path d="m101.36 208.11c-7.3786 2.2471-13.54 4.0209-13.693 3.9416-0.44109-0.22918-4.0152-14.051-4.8882-18.903-2.0955-11.648-2.0593-20.482 0.11984-29.293 2.4822-10.036 8.7876-20.017 17.626-27.9 2.1962-1.9589 4.4166-3.2271 6.477-3.6996 0.23247-0.0533 2.1185-0.53995 4.1912-1.0814l3.7686-0.98456 3.3733 0.48349c22.509 3.226 36.6 14.555 46.967 37.76 2.9516 6.6067 6.702 16.672 6.3602 17.069-0.70412 0.81844-35.569 12.031-70.302 22.609z"/>
   <path d="m108.15 131.59c-0.34445-0.038-1.5809 0.3149-2.7476 0.7838-1.7469 0.70211-2.1179 0.77718-2.1021 0.42538 0.0108-0.23496-0.78647-5.917-1.7712-12.627-0.98473-6.7097-1.6808-12.134-1.5468-12.054 0.18546 0.11107 7.0275 10.621 13.945 21.421 0.25485 0.3979 0.0229 0.51956-2.4347 1.279-1.494 0.46156-2.9982 0.80833-3.3426 0.77052z"/>
   <path d="m101.36 208.11c-7.3786 2.2471-13.54 4.0209-13.693 3.9416-0.44109-0.22918-4.0152-14.051-4.8882-18.903-2.0955-11.648-2.0593-20.482 0.11984-29.293 2.4822-10.036 8.7876-20.017 17.626-27.9 2.1962-1.9589 4.4166-3.2271 6.477-3.6996 0.23247-0.0533 2.1185-0.53995 4.1912-1.0814l3.7686-0.98456 3.3733 0.48349c22.509 3.226 36.6 14.555 46.967 37.76 2.9516 6.6067 6.702 16.672 6.3602 17.069-0.70412 0.81844-35.569 12.031-70.302 22.609z"/>
   <path d="m105.76 206.85c-9.3229 2.8533-17.235 5.2316-17.583 5.285l-0.63257 0.0971-0.83338-2.8846c-4.6747-16.182-6.2195-27.227-5.2446-37.5 1.1976-12.62 6.8283-24.027 16.557-33.539 3.9453-3.8578 4.7048-4.4663 6.2857-5.0358 0.76674-0.27618 1.6752-0.68495 2.0189-0.90826 0.46493-0.30204 0.81779-0.3888 1.3783-0.3388 0.54344 0.0489 1.5912-0.19821 3.7609-0.88553l3.0075-0.95272 2.9261 0.34723c11.333 1.345 21.301 5.2824 28.986 11.45 8.4964 6.8191 14.742 16.018 20.721 30.517 1.5787 3.8288 4.9732 12.907 4.8852 13.065-0.0328 0.0589-4.3991 1.5889-9.7028 3.4001-10.628 3.6294-30.557 9.9342-56.529 17.883z"/>
   <path d="m104.99 207.03c-9.4599 2.8564-17.284 5.1496-17.388 5.096-0.30536-0.15842-3.7254-13.305-4.585-17.625-3.1338-15.748-2.0939-28.497 3.2703-40.091 2.5197-5.4458 7.5157-12.066 13.049-17.291 2.7747-2.62 3.6285-3.2681 5.1277-3.8922 0.98922-0.41182 2.1137-0.8277 2.4987-0.92412 0.38504-0.0965 2.3992-0.60802 4.4759-1.1368l3.7758-0.96146 4.385 0.68336c17.724 2.7621 30.455 11.149 39.779 26.205 3.8671 6.2443 9.319 18.384 11.863 26.415l0.62064 1.9592-1.9374 0.80143c-3.3807 1.3984-47.058 15.363-64.936 20.761z" fill-rule="evenodd"/>
  </g>
  <path d="m80.841 175.6c-67.555-22.426-60.136-85.832-70.605-68.31-9.6901 17.177 2.3402 57.267 22.236 73.053 22.191 17.607 50.876 16.527 50.876 16.527-0.77049-7.0334-2.0111-15.693-2.5066-21.27z" fill="#fbfadb" stroke="#fefcd6" stroke-width=".21767px"/>
  <path d="m156.84 151.83c42.32-57.233 7e-3 -103.98 18.655-95.679 17.813 8.4644 31.06 48.169 23.884 72.531-8.0048 27.173-31.732 43.905-31.732 43.905-3.2909-6.2427-7.6189-16.39-10.807-20.757z" fill="#fbfadb" stroke="#fbfadb" stroke-width=".21767px"/>
  <g fill-opacity="0">
   <g stroke-width=".21802">
    <path d="m34.317 223.16c-7.3786 2.2471-13.54 4.0209-13.693 3.9416-0.44108-0.22919-4.0152-14.051-4.8882-18.903-2.0955-11.648-2.0594-20.482 0.11986-29.293 2.4822-10.036 8.7875-20.017 17.626-27.9 2.1962-1.9589 4.4166-3.2271 6.4771-3.6996 0.23248-0.0533 2.1185-0.53996 4.1912-1.0814l3.7686-0.98456 3.3733 0.48348c22.509 3.226 36.6 14.555 46.967 37.76 2.9516 6.6067 6.702 16.672 6.3603 17.069-0.70411 0.81845-35.569 12.031-70.302 22.609z"/>
    <path d="m34.317 223.16c-7.3786 2.2471-13.54 4.0209-13.693 3.9416-0.44108-0.22919-4.0152-14.051-4.8882-18.903-2.0955-11.648-2.0594-20.482 0.11986-29.293 2.4822-10.036 8.7875-20.017 17.626-27.9 2.1962-1.9589 4.4166-3.2271 6.4771-3.6996 0.23248-0.0533 2.1185-0.53996 4.1912-1.0814l3.7686-0.98456 3.3733 0.48348c22.509 3.226 36.6 14.555 46.967 37.76 2.9516 6.6067 6.702 16.672 6.3603 17.069-0.70411 0.81845-35.569 12.031-70.302 22.609z"/>
    <path d="m38.709 221.9c-9.3229 2.8534-17.235 5.2316-17.583 5.285l-0.63258 0.0971-0.83337-2.8846c-4.6747-16.182-6.2195-27.227-5.2446-37.5 1.1977-12.62 6.8284-24.027 16.557-33.539 3.9453-3.8578 4.7048-4.4663 6.2857-5.0358 0.76673-0.27619 1.6752-0.68495 2.019-0.90826 0.46492-0.30205 0.8178-0.3888 1.3783-0.33882 0.54343 0.0489 1.5912-0.19811 3.7609-0.8855l3.0075-0.95274 2.9261 0.34725c11.333 1.345 21.301 5.2824 28.986 11.45 8.4964 6.8192 14.742 16.018 20.721 30.517 1.5787 3.8288 4.9732 12.907 4.8852 13.065-0.0328 0.0589-4.3991 1.5889-9.7028 3.4001-10.628 3.6294-30.557 9.9341-56.529 17.883z"/>
   </g>
   <path d="m37.944 222.07c-9.4599 2.8564-17.284 5.1496-17.388 5.096-0.30535-0.15841-3.7254-13.305-4.585-17.625-3.1339-15.748-2.0939-28.497 3.2703-40.091 2.5198-5.4459 7.5157-12.066 13.049-17.291 2.7747-2.6201 3.6285-3.2682 5.1277-3.8923 0.98923-0.41186 2.1137-0.8277 2.4987-0.92415 0.38504-0.0965 2.3992-0.60801 4.4759-1.1368l3.7759-0.96144 4.385 0.68334c17.724 2.7622 30.455 11.149 39.779 26.205 3.8671 6.2443 9.319 18.384 11.863 26.415l0.62067 1.9593-1.9375 0.80143c-3.3807 1.3984-47.058 15.363-64.936 20.761z" stroke-width=".2886"/>
   <path d="m37.944 222.07c-9.4599 2.8564-17.284 5.1496-17.388 5.096-0.30535-0.15841-3.7254-13.305-4.585-17.625-3.1339-15.748-2.0939-28.497 3.2703-40.091 2.5198-5.4459 7.5157-12.066 13.049-17.291 2.7747-2.6201 3.6285-3.2682 5.1277-3.8923 0.98923-0.41186 2.1137-0.8277 2.4987-0.92415 0.38504-0.0965 2.3992-0.60801 4.4759-1.1368l3.7759-0.96144 4.385 0.68334c17.724 2.7622 30.455 11.149 39.779 26.205 3.8671 6.2443 9.319 18.384 11.863 26.415l0.62067 1.9593-1.9375 0.80143c-3.3807 1.3984-47.058 15.363-64.936 20.761z" stroke-width=".2886"/>
  </g>
  <path d="m106.82 131.83c-0.0357 0.0211-0.0645 0.0409-0.0961 0.0613 0.0102 3e-3 0.0179 6e-3 0.0343 7e-3 -0.0295 7e-3 -0.0614 0.0177-0.094 0.0314-3e-3 2e-3 -7e-3 5e-3 -0.0101 7e-3 -0.28139 0.21394-0.58632 0.39823-0.90157 0.5581-0.42575 0.21588-0.87707 0.37743-1.3155 0.56611-0.47169 0.20302-0.89537 0.28208-1.2592 0.27227-29.762 24.428-23.598 53.148-15.722 79.252 26.882-8.2941 56.997-16.924 84.879-26.888-8.6882-23.974-18.809-52.427-57.793-55.682-0.0597 0.0221-0.11889 0.0447-0.18238 0.0649-0.3671 0.11644-0.73433 0.2331-1.1016 0.34897-0.54987 0.17342-1.0996 0.34676-1.6478 0.52515-0.5077 0.16071-1.0234 0.29602-1.5254 0.47388-0.70558 0.29296-1.194 0.48676-1.9893 0.42859-0.0493-3e-3 -0.14515-0.0119-0.21237-0.024-0.27084 0.0538-0.31736 0.0285-0.67499-0.0795-0.15156 0.0283-0.286 0.0549-0.38694 0.0794z" fill="#cdad00" fill-opacity=".98492" fill-rule="evenodd" stroke="#cdad00" stroke-width=".21802"/>
  <path d="m103.17 133.33-3.8668-26.9 15.23 23.581" fill-opacity="0" stroke="#cdad00" stroke-width=".21802"/>
  <g fill="#cdad00" fill-opacity=".98492" stroke="#cdad00" stroke-width=".21802">
   <path d="m101.36 208.11c-7.3786 2.2471-13.54 4.0209-13.693 3.9416-0.44109-0.22918-4.0152-14.051-4.8882-18.903-2.0955-11.648-2.0593-20.482 0.11984-29.293 2.4822-10.036 8.7876-20.017 17.626-27.9 2.1962-1.9589 4.4166-3.2271 6.477-3.6996 0.23247-0.0533 2.1185-0.53995 4.1912-1.0814l3.7686-0.98456 3.3733 0.48349c22.509 3.226 36.6 14.555 46.967 37.76 2.9516 6.6067 6.702 16.672 6.3602 17.069-0.70412 0.81844-35.569 12.031-70.302 22.609z"/>
   <path d="m108.15 131.59c-0.34445-0.038-1.5809 0.3149-2.7476 0.7838-1.7469 0.70211-2.1179 0.77718-2.1021 0.42538 0.0108-0.23496-0.78647-5.917-1.7712-12.627-0.98473-6.7097-1.6808-12.134-1.5468-12.054 0.18546 0.11107 7.0275 10.621 13.945 21.421 0.25485 0.3979 0.0229 0.51956-2.4347 1.279-1.494 0.46156-2.9982 0.80833-3.3426 0.77052z"/>
   <path d="m101.36 208.11c-7.3786 2.2471-13.54 4.0209-13.693 3.9416-0.44109-0.22918-4.0152-14.051-4.8882-18.903-2.0955-11.648-2.0593-20.482 0.11984-29.293 2.4822-10.036 8.7876-20.017 17.626-27.9 2.1962-1.9589 4.4166-3.2271 6.477-3.6996 0.23247-0.0533 2.1185-0.53995 4.1912-1.0814l3.7686-0.98456 3.3733 0.48349c22.509 3.226 36.6 14.555 46.967 37.76 2.9516 6.6067 6.702 16.672 6.3602 17.069-0.70412 0.81844-35.569 12.031-70.302 22.609z"/>
   <path d="m105.76 206.85c-9.3229 2.8533-17.235 5.2316-17.583 5.285l-0.63257 0.0971-0.83338-2.8846c-4.6747-16.182-6.2195-27.227-5.2446-37.5 1.1976-12.62 6.8283-24.027 16.557-33.539 3.9453-3.8578 4.7048-4.4663 6.2857-5.0358 0.76674-0.27618 1.6752-0.68495 2.0189-0.90826 0.46493-0.30204 0.81779-0.3888 1.3783-0.3388 0.54344 0.0489 1.5912-0.19821 3.7609-0.88553l3.0075-0.95272 2.9261 0.34723c11.333 1.345 21.301 5.2824 28.986 11.45 8.4964 6.8191 14.742 16.018 20.721 30.517 1.5787 3.8288 4.9732 12.907 4.8852 13.065-0.0328 0.0589-4.3991 1.5889-9.7028 3.4001-10.628 3.6294-30.557 9.9342-56.529 17.883z"/>
   <path d="m104.99 207.03c-9.4599 2.8564-17.284 5.1496-17.388 5.096-0.30536-0.15842-3.7254-13.305-4.585-17.625-3.1338-15.748-2.0939-28.497 3.2703-40.091 2.5197-5.4458 7.5157-12.066 13.049-17.291 2.7747-2.62 3.6285-3.2681 5.1277-3.8922 0.98922-0.41182 2.1137-0.8277 2.4987-0.92412 0.38504-0.0965 2.3992-0.60802 4.4759-1.1368l3.7758-0.96146 4.385 0.68336c17.724 2.7621 30.455 11.149 39.779 26.205 3.8671 6.2443 9.319 18.384 11.863 26.415l0.62064 1.9592-1.9374 0.80143c-3.3807 1.3984-47.058 15.363-64.936 20.761z" fill-rule="evenodd"/>
  </g>
  <path d="m80.841 175.6c-67.555-22.426-60.136-85.832-70.605-68.31-9.6901 17.177 2.3402 57.267 22.236 73.053 22.191 17.607 50.876 16.527 50.876 16.527-0.77049-7.0334-2.0111-15.693-2.5066-21.27z" fill="#fbfadb" stroke="#fefcd6" stroke-width=".21767px"/>
  <path d="m156.84 151.83c42.32-57.233 7e-3 -103.98 18.655-95.679 17.813 8.4644 31.06 48.169 23.884 72.531-8.0048 27.173-31.732 43.905-31.732 43.905-3.2909-6.2427-7.6189-16.39-10.807-20.757z" fill="#fbfadb" stroke="#fbfadb" stroke-width=".21767px"/>
  <g fill-opacity="0">
   <g stroke-width=".21802">
    <path d="m34.317 223.16c-7.3786 2.2471-13.54 4.0209-13.693 3.9416-0.44108-0.22919-4.0152-14.051-4.8882-18.903-2.0955-11.648-2.0594-20.482 0.11986-29.293 2.4822-10.036 8.7875-20.017 17.626-27.9 2.1962-1.9589 4.4166-3.2271 6.4771-3.6996 0.23248-0.0533 2.1185-0.53996 4.1912-1.0814l3.7686-0.98456 3.3733 0.48348c22.509 3.226 36.6 14.555 46.967 37.76 2.9516 6.6067 6.702 16.672 6.3603 17.069-0.70411 0.81845-35.569 12.031-70.302 22.609z"/>
    <path d="m34.317 223.16c-7.3786 2.2471-13.54 4.0209-13.693 3.9416-0.44108-0.22919-4.0152-14.051-4.8882-18.903-2.0955-11.648-2.0594-20.482 0.11986-29.293 2.4822-10.036 8.7875-20.017 17.626-27.9 2.1962-1.9589 4.4166-3.2271 6.4771-3.6996 0.23248-0.0533 2.1185-0.53996 4.1912-1.0814l3.7686-0.98456 3.3733 0.48348c22.509 3.226 36.6 14.555 46.967 37.76 2.9516 6.6067 6.702 16.672 6.3603 17.069-0.70411 0.81845-35.569 12.031-70.302 22.609z"/>
    <path d="m38.709 221.9c-9.3229 2.8534-17.235 5.2316-17.583 5.285l-0.63258 0.0971-0.83337-2.8846c-4.6747-16.182-6.2195-27.227-5.2446-37.5 1.1977-12.62 6.8284-24.027 16.557-33.539 3.9453-3.8578 4.7048-4.4663 6.2857-5.0358 0.76673-0.27619 1.6752-0.68495 2.019-0.90826 0.46492-0.30205 0.8178-0.3888 1.3783-0.33882 0.54343 0.0489 1.5912-0.19811 3.7609-0.8855l3.0075-0.95274 2.9261 0.34725c11.333 1.345 21.301 5.2824 28.986 11.45 8.4964 6.8192 14.742 16.018 20.721 30.517 1.5787 3.8288 4.9732 12.907 4.8852 13.065-0.0328 0.0589-4.3991 1.5889-9.7028 3.4001-10.628 3.6294-30.557 9.9341-56.529 17.883z"/>
   </g>
   <path d="m37.944 222.07c-9.4599 2.8564-17.284 5.1496-17.388 5.096-0.30535-0.15841-3.7254-13.305-4.585-17.625-3.1339-15.748-2.0939-28.497 3.2703-40.091 2.5198-5.4459 7.5157-12.066 13.049-17.291 2.7747-2.6201 3.6285-3.2682 5.1277-3.8923 0.98923-0.41186 2.1137-0.8277 2.4987-0.92415 0.38504-0.0965 2.3992-0.60801 4.4759-1.1368l3.7759-0.96144 4.385 0.68334c17.724 2.7622 30.455 11.149 39.779 26.205 3.8671 6.2443 9.319 18.384 11.863 26.415l0.62067 1.9593-1.9375 0.80143c-3.3807 1.3984-47.058 15.363-64.936 20.761z" stroke-width=".2886"/>
   <path d="m37.944 222.07c-9.4599 2.8564-17.284 5.1496-17.388 5.096-0.30535-0.15841-3.7254-13.305-4.585-17.625-3.1339-15.748-2.0939-28.497 3.2703-40.091 2.5198-5.4459 7.5157-12.066 13.049-17.291 2.7747-2.6201 3.6285-3.2682 5.1277-3.8923 0.98923-0.41186 2.1137-0.8277 2.4987-0.92415 0.38504-0.0965 2.3992-0.60801 4.4759-1.1368l3.7759-0.96144 4.385 0.68334c17.724 2.7622 30.455 11.149 39.779 26.205 3.8671 6.2443 9.319 18.384 11.863 26.415l0.62067 1.9593-1.9375 0.80143c-3.3807 1.3984-47.058 15.363-64.936 20.761z" stroke-width=".2886"/>
  </g>
  <path d="m106.82 131.83c-0.0357 0.0211-0.0645 0.0409-0.0961 0.0613 0.0102 3e-3 0.0179 6e-3 0.0343 7e-3 -0.0295 7e-3 -0.0614 0.0177-0.094 0.0314-3e-3 2e-3 -7e-3 5e-3 -0.0101 7e-3 -0.28139 0.21394-0.58632 0.39823-0.90157 0.5581-0.42575 0.21588-0.87707 0.37743-1.3155 0.56611-0.47169 0.20302-0.89537 0.28208-1.2592 0.27227-29.762 24.428-23.598 53.148-15.722 79.252 26.882-8.2941 56.997-16.924 84.879-26.888-8.6882-23.974-18.809-52.427-57.793-55.682-0.0597 0.0221-0.11889 0.0447-0.18238 0.0649-0.3671 0.11644-0.73433 0.2331-1.1016 0.34897-0.54987 0.17342-1.0996 0.34676-1.6478 0.52515-0.5077 0.16071-1.0234 0.29602-1.5254 0.47388-0.70558 0.29296-1.194 0.48676-1.9893 0.42859-0.0493-3e-3 -0.14515-0.0119-0.21237-0.024-0.27084 0.0538-0.31736 0.0285-0.67499-0.0795-0.15156 0.0283-0.286 0.0549-0.38694 0.0794z" fill="#cdad00" fill-opacity=".98492" fill-rule="evenodd" stroke="#cdad00" stroke-width=".21802"/>
  <path d="m103.17 133.33-3.8668-26.9 15.23 23.581" fill-opacity="0" stroke="#cdad00" stroke-width=".21802"/>
  <g fill="#cdad00" fill-opacity=".98492" stroke="#cdad00" stroke-width=".21802">
   <path d="m101.36 208.11c-7.3786 2.2471-13.54 4.0209-13.693 3.9416-0.44109-0.22918-4.0152-14.051-4.8882-18.903-2.0955-11.648-2.0593-20.482 0.11984-29.293 2.4822-10.036 8.7876-20.017 17.626-27.9 2.1962-1.9589 4.4166-3.2271 6.477-3.6996 0.23247-0.0533 2.1185-0.53995 4.1912-1.0814l3.7686-0.98456 3.3733 0.48349c22.509 3.226 36.6 14.555 46.967 37.76 2.9516 6.6067 6.702 16.672 6.3602 17.069-0.70412 0.81844-35.569 12.031-70.302 22.609z"/>
   <path d="m108.15 131.59c-0.34445-0.038-1.5809 0.3149-2.7476 0.7838-1.7469 0.70211-2.1179 0.77718-2.1021 0.42538 0.0108-0.23496-0.78647-5.917-1.7712-12.627-0.98473-6.7097-1.6808-12.134-1.5468-12.054 0.18546 0.11107 7.0275 10.621 13.945 21.421 0.25485 0.3979 0.0229 0.51956-2.4347 1.279-1.494 0.46156-2.9982 0.80833-3.3426 0.77052z"/>
   <path d="m101.36 208.11c-7.3786 2.2471-13.54 4.0209-13.693 3.9416-0.44109-0.22918-4.0152-14.051-4.8882-18.903-2.0955-11.648-2.0593-20.482 0.11984-29.293 2.4822-10.036 8.7876-20.017 17.626-27.9 2.1962-1.9589 4.4166-3.2271 6.477-3.6996 0.23247-0.0533 2.1185-0.53995 4.1912-1.0814l3.7686-0.98456 3.3733 0.48349c22.509 3.226 36.6 14.555 46.967 37.76 2.9516 6.6067 6.702 16.672 6.3602 17.069-0.70412 0.81844-35.569 12.031-70.302 22.609z"/>
   <path d="m105.76 206.85c-9.3229 2.8533-17.235 5.2316-17.583 5.285l-0.63257 0.0971-0.83338-2.8846c-4.6747-16.182-6.2195-27.227-5.2446-37.5 1.1976-12.62 6.8283-24.027 16.557-33.539 3.9453-3.8578 4.7048-4.4663 6.2857-5.0358 0.76674-0.27618 1.6752-0.68495 2.0189-0.90826 0.46493-0.30204 0.81779-0.3888 1.3783-0.3388 0.54344 0.0489 1.5912-0.19821 3.7609-0.88553l3.0075-0.95272 2.9261 0.34723c11.333 1.345 21.301 5.2824 28.986 11.45 8.4964 6.8191 14.742 16.018 20.721 30.517 1.5787 3.8288 4.9732 12.907 4.8852 13.065-0.0328 0.0589-4.3991 1.5889-9.7028 3.4001-10.628 3.6294-30.557 9.9342-56.529 17.883z"/>
   <path d="m104.99 207.03c-9.4599 2.8564-17.284 5.1496-17.388 5.096-0.30536-0.15842-3.7254-13.305-4.585-17.625-3.1338-15.748-2.0939-28.497 3.2703-40.091 2.5197-5.4458 7.5157-12.066 13.049-17.291 2.7747-2.62 3.6285-3.2681 5.1277-3.8922 0.98922-0.41182 2.1137-0.8277 2.4987-0.92412 0.38504-0.0965 2.3992-0.60802 4.4759-1.1368l3.7758-0.96146 4.385 0.68336c17.724 2.7621 30.455 11.149 39.779 26.205 3.8671 6.2443 9.319 18.384 11.863 26.415l0.62064 1.9592-1.9374 0.80143c-3.3807 1.3984-47.058 15.363-64.936 20.761z" fill-rule="evenodd"/>
  </g>
  <path d="m80.841 175.6c-67.555-22.426-60.136-85.832-70.605-68.31-9.6901 17.177 2.3402 57.267 22.236 73.053 22.191 17.607 50.876 16.527 50.876 16.527-0.77049-7.0334-2.0111-15.693-2.5066-21.27z" fill="#fbfadb" stroke="#fefcd6" stroke-width=".21767px"/>
  <path d="m156.84 151.83c42.32-57.233 7e-3 -103.98 18.655-95.679 17.813 8.4644 31.06 48.169 23.884 72.531-8.0048 27.173-31.732 43.905-31.732 43.905-3.2909-6.2427-7.6189-16.39-10.807-20.757z" fill="#fbfadb" stroke="#fbfadb" stroke-width=".21767px"/>
 </g>
</svg>
